<mxfile host="Electron" modified="2024-05-02T16:08:08.941Z" agent="Mozilla/5.0 (Windows NT 10.0; Win64; x64) AppleWebKit/537.36 (KHTML, like Gecko) draw.io/24.2.5 Chrome/120.0.6099.109 Electron/28.1.0 Safari/537.36" etag="hN3GMfLr3A4lg-8UNq8P" version="24.2.5" type="device">
  <diagram name="Pagina-1" id="SM1ILJYVkXpdgrOUHpD2">
    <mxGraphModel dx="1891" dy="2273" grid="1" gridSize="10" guides="1" tooltips="1" connect="1" arrows="1" fold="1" page="1" pageScale="1" pageWidth="827" pageHeight="1169" math="0" shadow="0">
      <root>
        <mxCell id="0" />
        <mxCell id="1" parent="0" />
        <mxCell id="t24WGjuX6B1RanKLqHfm-8" value="Reset Daemon" style="rounded=0;whiteSpace=wrap;html=1;" vertex="1" parent="1">
          <mxGeometry x="1040" y="-360" width="160" height="80" as="geometry" />
        </mxCell>
        <mxCell id="t24WGjuX6B1RanKLqHfm-127" value="" style="ellipse;whiteSpace=wrap;html=1;aspect=fixed;strokeColor=none;" vertex="1" parent="1">
          <mxGeometry x="1025" y="-375.5" width="31.5" height="31.5" as="geometry" />
        </mxCell>
        <mxCell id="t24WGjuX6B1RanKLqHfm-5" value="CLI Manager" style="rounded=0;whiteSpace=wrap;html=1;" vertex="1" parent="1">
          <mxGeometry x="440" y="-440" width="160" height="80" as="geometry" />
        </mxCell>
        <mxCell id="t24WGjuX6B1RanKLqHfm-125" value="" style="ellipse;whiteSpace=wrap;html=1;aspect=fixed;" vertex="1" parent="1">
          <mxGeometry x="430.25" y="-451.25" width="23.5" height="23.5" as="geometry" />
        </mxCell>
        <mxCell id="t24WGjuX6B1RanKLqHfm-2" value="UDP Server" style="rounded=0;whiteSpace=wrap;html=1;" vertex="1" parent="1">
          <mxGeometry x="440" y="-960" width="160" height="80" as="geometry" />
        </mxCell>
        <mxCell id="t24WGjuX6B1RanKLqHfm-3" value="Msg Manager" style="rounded=0;whiteSpace=wrap;html=1;" vertex="1" parent="1">
          <mxGeometry x="440" y="-720" width="160" height="80" as="geometry" />
        </mxCell>
        <mxCell id="t24WGjuX6B1RanKLqHfm-4" value="Telegram Bot Manager" style="rounded=0;whiteSpace=wrap;html=1;" vertex="1" parent="1">
          <mxGeometry x="440" y="-560" width="160" height="80" as="geometry" />
        </mxCell>
        <mxCell id="t24WGjuX6B1RanKLqHfm-6" value="Alarm Manager" style="rounded=0;whiteSpace=wrap;html=1;" vertex="1" parent="1">
          <mxGeometry x="760" y="-720" width="160" height="80" as="geometry" />
        </mxCell>
        <mxCell id="t24WGjuX6B1RanKLqHfm-7" value="Keep-Alive Daemon" style="rounded=0;whiteSpace=wrap;html=1;" vertex="1" parent="1">
          <mxGeometry x="1040" y="-521.5" width="160" height="81.5" as="geometry" />
        </mxCell>
        <mxCell id="t24WGjuX6B1RanKLqHfm-9" value="Web Server" style="rounded=0;whiteSpace=wrap;html=1;" vertex="1" parent="1">
          <mxGeometry x="440" y="-320" width="170" height="80" as="geometry" />
        </mxCell>
        <mxCell id="t24WGjuX6B1RanKLqHfm-22" value="" style="endArrow=classic;html=1;rounded=0;exitX=0;exitY=0.5;exitDx=0;exitDy=0;entryX=0.5;entryY=0;entryDx=0;entryDy=0;" edge="1" parent="1" source="t24WGjuX6B1RanKLqHfm-2" target="t24WGjuX6B1RanKLqHfm-119">
          <mxGeometry width="50" height="50" relative="1" as="geometry">
            <mxPoint x="670" y="-710" as="sourcePoint" />
            <mxPoint x="293.4999999999998" y="-846" as="targetPoint" />
            <Array as="points">
              <mxPoint x="240" y="-920" />
            </Array>
          </mxGeometry>
        </mxCell>
        <mxCell id="t24WGjuX6B1RanKLqHfm-23" value="Put Received Msg" style="edgeLabel;html=1;align=center;verticalAlign=middle;resizable=0;points=[];" vertex="1" connectable="0" parent="t24WGjuX6B1RanKLqHfm-22">
          <mxGeometry x="0.16" y="-4" relative="1" as="geometry">
            <mxPoint x="49" y="4" as="offset" />
          </mxGeometry>
        </mxCell>
        <mxCell id="t24WGjuX6B1RanKLqHfm-24" value="" style="endArrow=classic;html=1;rounded=0;entryX=0.5;entryY=0;entryDx=0;entryDy=0;exitX=0.5;exitY=1;exitDx=0;exitDy=0;" edge="1" parent="1" source="t24WGjuX6B1RanKLqHfm-119" target="t24WGjuX6B1RanKLqHfm-3">
          <mxGeometry width="50" height="50" relative="1" as="geometry">
            <mxPoint x="260" y="-761" as="sourcePoint" />
            <mxPoint x="474" y="-691" as="targetPoint" />
            <Array as="points">
              <mxPoint x="240" y="-760" />
              <mxPoint x="520" y="-761" />
            </Array>
          </mxGeometry>
        </mxCell>
        <mxCell id="t24WGjuX6B1RanKLqHfm-26" value="Get Msg" style="edgeLabel;html=1;align=center;verticalAlign=middle;resizable=0;points=[];" vertex="1" connectable="0" parent="t24WGjuX6B1RanKLqHfm-24">
          <mxGeometry x="0.1433" relative="1" as="geometry">
            <mxPoint x="-46" as="offset" />
          </mxGeometry>
        </mxCell>
        <mxCell id="t24WGjuX6B1RanKLqHfm-30" value="" style="endArrow=classic;html=1;rounded=0;exitX=0;exitY=0.25;exitDx=0;exitDy=0;entryX=1;entryY=0.25;entryDx=0;entryDy=0;" edge="1" parent="1" source="t24WGjuX6B1RanKLqHfm-3" target="t24WGjuX6B1RanKLqHfm-115">
          <mxGeometry width="50" height="50" relative="1" as="geometry">
            <mxPoint x="750" y="-560" as="sourcePoint" />
            <mxPoint x="230" y="-722" as="targetPoint" />
          </mxGeometry>
        </mxCell>
        <mxCell id="t24WGjuX6B1RanKLqHfm-31" value="Update Nodes Status" style="edgeLabel;html=1;align=center;verticalAlign=middle;resizable=0;points=[];" vertex="1" connectable="0" parent="t24WGjuX6B1RanKLqHfm-30">
          <mxGeometry x="-0.1529" y="-3" relative="1" as="geometry">
            <mxPoint x="-12" as="offset" />
          </mxGeometry>
        </mxCell>
        <mxCell id="t24WGjuX6B1RanKLqHfm-32" value="" style="endArrow=classic;html=1;rounded=0;exitX=1;exitY=0.5;exitDx=0;exitDy=0;entryX=0;entryY=0.5;entryDx=0;entryDy=0;" edge="1" parent="1" source="t24WGjuX6B1RanKLqHfm-3" target="t24WGjuX6B1RanKLqHfm-6">
          <mxGeometry width="50" height="50" relative="1" as="geometry">
            <mxPoint x="640" y="-520" as="sourcePoint" />
            <mxPoint x="690" y="-570" as="targetPoint" />
            <Array as="points" />
          </mxGeometry>
        </mxCell>
        <mxCell id="t24WGjuX6B1RanKLqHfm-33" value="Add / Remove&lt;div&gt;Detection&lt;/div&gt;" style="edgeLabel;html=1;align=center;verticalAlign=middle;resizable=0;points=[];" vertex="1" connectable="0" parent="t24WGjuX6B1RanKLqHfm-32">
          <mxGeometry x="-0.623" y="-4" relative="1" as="geometry">
            <mxPoint x="40" y="-4" as="offset" />
          </mxGeometry>
        </mxCell>
        <mxCell id="t24WGjuX6B1RanKLqHfm-34" value="" style="endArrow=classic;html=1;rounded=0;exitX=0.5;exitY=1;exitDx=0;exitDy=0;entryX=0.5;entryY=0;entryDx=0;entryDy=0;" edge="1" parent="1" source="t24WGjuX6B1RanKLqHfm-3" target="t24WGjuX6B1RanKLqHfm-4">
          <mxGeometry width="50" height="50" relative="1" as="geometry">
            <mxPoint x="630" y="-540" as="sourcePoint" />
            <mxPoint x="680" y="-590" as="targetPoint" />
          </mxGeometry>
        </mxCell>
        <mxCell id="t24WGjuX6B1RanKLqHfm-36" value="Publish Msg on Telegram" style="edgeLabel;html=1;align=center;verticalAlign=middle;resizable=0;points=[];" vertex="1" connectable="0" parent="t24WGjuX6B1RanKLqHfm-34">
          <mxGeometry x="-0.3455" y="-3" relative="1" as="geometry">
            <mxPoint as="offset" />
          </mxGeometry>
        </mxCell>
        <mxCell id="t24WGjuX6B1RanKLqHfm-37" value="Protocols&lt;div&gt;Module&lt;/div&gt;" style="rounded=0;whiteSpace=wrap;html=1;points=[[0,0,0,0,0],[0,0.13,0,0,0],[0,0.25,0,0,0],[0,0.37,0,0,0],[0,0.5,0,0,0],[0,0.63,0,0,0],[0,0.75,0,0,0],[0,0.87,0,0,0],[0,1,0,0,0],[0.25,0,0,0,0],[0.25,1,0,0,0],[0.5,0,0,0,0],[0.5,1,0,0,0],[0.75,0,0,0,0],[0.75,1,0,0,0],[1,0,0,0,0],[1,0.25,0,0,0],[1,0.5,0,0,0],[1,0.75,0,0,0],[1,1,0,0,0]];" vertex="1" parent="1">
          <mxGeometry x="760" y="-440" width="160" height="80" as="geometry" />
        </mxCell>
        <mxCell id="t24WGjuX6B1RanKLqHfm-40" value="" style="endArrow=classic;html=1;rounded=0;entryX=0;entryY=0.5;entryDx=0;entryDy=0;startArrow=classic;startFill=1;" edge="1" parent="1" target="t24WGjuX6B1RanKLqHfm-5">
          <mxGeometry width="50" height="50" relative="1" as="geometry">
            <mxPoint x="320" y="-400" as="sourcePoint" />
            <mxPoint x="320" y="-340" as="targetPoint" />
          </mxGeometry>
        </mxCell>
        <mxCell id="t24WGjuX6B1RanKLqHfm-49" value="" style="endArrow=classic;html=1;rounded=0;exitX=0.5;exitY=1;exitDx=0;exitDy=0;entryX=0.5;entryY=0;entryDx=0;entryDy=0;startArrow=classic;startFill=1;" edge="1" parent="1" source="t24WGjuX6B1RanKLqHfm-139" target="t24WGjuX6B1RanKLqHfm-2">
          <mxGeometry width="50" height="50" relative="1" as="geometry">
            <mxPoint x="520" y="-1050" as="sourcePoint" />
            <mxPoint x="520" y="-1020" as="targetPoint" />
          </mxGeometry>
        </mxCell>
        <mxCell id="t24WGjuX6B1RanKLqHfm-57" value="" style="endArrow=classic;html=1;rounded=0;entryX=0;entryY=0.5;entryDx=0;entryDy=0;startArrow=classic;startFill=1;" edge="1" parent="1" target="t24WGjuX6B1RanKLqHfm-9">
          <mxGeometry width="50" height="50" relative="1" as="geometry">
            <mxPoint x="290" y="-360" as="sourcePoint" />
            <mxPoint x="414" y="-320.5" as="targetPoint" />
            <Array as="points">
              <mxPoint x="290" y="-280" />
            </Array>
          </mxGeometry>
        </mxCell>
        <mxCell id="t24WGjuX6B1RanKLqHfm-58" value="" style="endArrow=classic;html=1;rounded=0;entryX=0;entryY=0.5;entryDx=0;entryDy=0;startArrow=classic;startFill=1;" edge="1" parent="1" target="t24WGjuX6B1RanKLqHfm-4">
          <mxGeometry width="50" height="50" relative="1" as="geometry">
            <mxPoint x="290" y="-440" as="sourcePoint" />
            <mxPoint x="414" y="-520.5" as="targetPoint" />
            <Array as="points">
              <mxPoint x="290" y="-520" />
            </Array>
          </mxGeometry>
        </mxCell>
        <mxCell id="t24WGjuX6B1RanKLqHfm-59" value="" style="endArrow=classic;html=1;rounded=0;entryX=0.5;entryY=1;entryDx=0;entryDy=0;exitX=0.5;exitY=0;exitDx=0;exitDy=0;" edge="1" parent="1" source="t24WGjuX6B1RanKLqHfm-37" target="t24WGjuX6B1RanKLqHfm-6">
          <mxGeometry width="50" height="50" relative="1" as="geometry">
            <mxPoint x="790" y="-520" as="sourcePoint" />
            <mxPoint x="840" y="-570" as="targetPoint" />
          </mxGeometry>
        </mxCell>
        <mxCell id="t24WGjuX6B1RanKLqHfm-60" value="Arm / Disarm Alarm" style="edgeLabel;html=1;align=center;verticalAlign=middle;resizable=0;points=[];" vertex="1" connectable="0" parent="t24WGjuX6B1RanKLqHfm-59">
          <mxGeometry x="0.3059" y="4" relative="1" as="geometry">
            <mxPoint as="offset" />
          </mxGeometry>
        </mxCell>
        <mxCell id="t24WGjuX6B1RanKLqHfm-61" value="" style="endArrow=classic;html=1;rounded=0;exitX=1;exitY=0.75;exitDx=0;exitDy=0;entryX=0;entryY=0.75;entryDx=0;entryDy=0;" edge="1" parent="1" source="t24WGjuX6B1RanKLqHfm-115" target="t24WGjuX6B1RanKLqHfm-3">
          <mxGeometry width="50" height="50" relative="1" as="geometry">
            <mxPoint x="230" y="-698" as="sourcePoint" />
            <mxPoint x="260" y="-630" as="targetPoint" />
          </mxGeometry>
        </mxCell>
        <mxCell id="t24WGjuX6B1RanKLqHfm-62" value="Get Nodes Status" style="edgeLabel;html=1;align=center;verticalAlign=middle;resizable=0;points=[];" vertex="1" connectable="0" parent="t24WGjuX6B1RanKLqHfm-61">
          <mxGeometry x="0.0723" y="-8" relative="1" as="geometry">
            <mxPoint x="-6" y="-8" as="offset" />
          </mxGeometry>
        </mxCell>
        <mxCell id="t24WGjuX6B1RanKLqHfm-63" value="" style="endArrow=classic;html=1;rounded=0;exitX=0.5;exitY=1;exitDx=0;exitDy=0;entryX=0.5;entryY=1;entryDx=0;entryDy=0;exitPerimeter=0;" edge="1" parent="1" source="t24WGjuX6B1RanKLqHfm-37" target="t24WGjuX6B1RanKLqHfm-115">
          <mxGeometry width="50" height="50" relative="1" as="geometry">
            <mxPoint x="424" y="-717" as="sourcePoint" />
            <mxPoint x="221" y="-683" as="targetPoint" />
            <Array as="points">
              <mxPoint x="840" y="-200" />
              <mxPoint x="200" y="-200" />
            </Array>
          </mxGeometry>
        </mxCell>
        <mxCell id="t24WGjuX6B1RanKLqHfm-64" value="Update Nodes Status" style="edgeLabel;html=1;align=center;verticalAlign=middle;resizable=0;points=[];" vertex="1" connectable="0" parent="t24WGjuX6B1RanKLqHfm-63">
          <mxGeometry x="-0.1529" y="-3" relative="1" as="geometry">
            <mxPoint x="-155" as="offset" />
          </mxGeometry>
        </mxCell>
        <mxCell id="t24WGjuX6B1RanKLqHfm-65" value="" style="endArrow=classic;html=1;rounded=0;exitX=0.25;exitY=1;exitDx=0;exitDy=0;entryX=0.75;entryY=1;entryDx=0;entryDy=0;" edge="1" parent="1" source="t24WGjuX6B1RanKLqHfm-115" target="t24WGjuX6B1RanKLqHfm-37">
          <mxGeometry width="50" height="50" relative="1" as="geometry">
            <mxPoint x="179" y="-683" as="sourcePoint" />
            <mxPoint x="424" y="-672" as="targetPoint" />
            <Array as="points">
              <mxPoint x="160" y="-160" />
              <mxPoint x="880" y="-160" />
            </Array>
          </mxGeometry>
        </mxCell>
        <mxCell id="t24WGjuX6B1RanKLqHfm-66" value="Get Node Status" style="edgeLabel;html=1;align=center;verticalAlign=middle;resizable=0;points=[];" vertex="1" connectable="0" parent="t24WGjuX6B1RanKLqHfm-65">
          <mxGeometry x="0.0723" y="-8" relative="1" as="geometry">
            <mxPoint x="-111" y="-8" as="offset" />
          </mxGeometry>
        </mxCell>
        <mxCell id="t24WGjuX6B1RanKLqHfm-69" value="" style="endArrow=classic;html=1;rounded=0;exitX=1;exitY=0.5;exitDx=0;exitDy=0;entryX=0.25;entryY=0;entryDx=0;entryDy=0;entryPerimeter=0;startArrow=none;startFill=0;" edge="1" parent="1" source="t24WGjuX6B1RanKLqHfm-4" target="t24WGjuX6B1RanKLqHfm-37">
          <mxGeometry width="50" height="50" relative="1" as="geometry">
            <mxPoint x="630" y="-430" as="sourcePoint" />
            <mxPoint x="680" y="-480" as="targetPoint" />
            <Array as="points">
              <mxPoint x="800" y="-520" />
            </Array>
          </mxGeometry>
        </mxCell>
        <mxCell id="t24WGjuX6B1RanKLqHfm-70" value="Run Protocol" style="edgeLabel;html=1;align=center;verticalAlign=middle;resizable=0;points=[];" vertex="1" connectable="0" parent="t24WGjuX6B1RanKLqHfm-69">
          <mxGeometry x="0.3818" y="-3" relative="1" as="geometry">
            <mxPoint x="-113" y="-3" as="offset" />
          </mxGeometry>
        </mxCell>
        <mxCell id="t24WGjuX6B1RanKLqHfm-73" value="" style="endArrow=classic;startArrow=none;html=1;rounded=0;entryX=0;entryY=0.5;entryDx=0;entryDy=0;entryPerimeter=0;exitX=1;exitY=0.5;exitDx=0;exitDy=0;startFill=0;" edge="1" parent="1" source="t24WGjuX6B1RanKLqHfm-5" target="t24WGjuX6B1RanKLqHfm-37">
          <mxGeometry width="50" height="50" relative="1" as="geometry">
            <mxPoint x="510" y="-520" as="sourcePoint" />
            <mxPoint x="560" y="-570" as="targetPoint" />
          </mxGeometry>
        </mxCell>
        <mxCell id="t24WGjuX6B1RanKLqHfm-74" value="Run Protocol" style="edgeLabel;html=1;align=center;verticalAlign=middle;resizable=0;points=[];" vertex="1" connectable="0" parent="t24WGjuX6B1RanKLqHfm-73">
          <mxGeometry x="-0.2568" y="-1" relative="1" as="geometry">
            <mxPoint x="21" y="-1" as="offset" />
          </mxGeometry>
        </mxCell>
        <mxCell id="t24WGjuX6B1RanKLqHfm-75" value="" style="endArrow=classic;startArrow=none;html=1;rounded=0;entryX=0.25;entryY=1;entryDx=0;entryDy=0;entryPerimeter=0;exitX=1;exitY=0.5;exitDx=0;exitDy=0;startFill=0;" edge="1" parent="1" source="t24WGjuX6B1RanKLqHfm-9" target="t24WGjuX6B1RanKLqHfm-37">
          <mxGeometry width="50" height="50" relative="1" as="geometry">
            <mxPoint x="544" y="-410" as="sourcePoint" />
            <mxPoint x="770" y="-415" as="targetPoint" />
            <Array as="points">
              <mxPoint x="800" y="-280" />
            </Array>
          </mxGeometry>
        </mxCell>
        <mxCell id="t24WGjuX6B1RanKLqHfm-76" value="Run Protocol" style="edgeLabel;html=1;align=center;verticalAlign=middle;resizable=0;points=[];" vertex="1" connectable="0" parent="t24WGjuX6B1RanKLqHfm-75">
          <mxGeometry x="-0.2568" y="-1" relative="1" as="geometry">
            <mxPoint x="-30" y="-1" as="offset" />
          </mxGeometry>
        </mxCell>
        <mxCell id="t24WGjuX6B1RanKLqHfm-78" value="" style="endArrow=classic;html=1;rounded=0;entryX=1;entryY=0.25;entryDx=0;entryDy=0;entryPerimeter=0;exitX=0;exitY=0.5;exitDx=0;exitDy=0;" edge="1" parent="1" source="t24WGjuX6B1RanKLqHfm-7" target="t24WGjuX6B1RanKLqHfm-37">
          <mxGeometry width="50" height="50" relative="1" as="geometry">
            <mxPoint x="1040" y="-280" as="sourcePoint" />
            <mxPoint x="1090" y="-330" as="targetPoint" />
            <Array as="points">
              <mxPoint x="960" y="-481" />
              <mxPoint x="960" y="-420" />
            </Array>
          </mxGeometry>
        </mxCell>
        <mxCell id="t24WGjuX6B1RanKLqHfm-79" value="Run Keep Alive&amp;nbsp;&lt;div&gt;Protocol&lt;/div&gt;" style="edgeLabel;html=1;align=center;verticalAlign=middle;resizable=0;points=[];" vertex="1" connectable="0" parent="t24WGjuX6B1RanKLqHfm-78">
          <mxGeometry x="-0.3215" y="2" relative="1" as="geometry">
            <mxPoint x="-16" y="5" as="offset" />
          </mxGeometry>
        </mxCell>
        <mxCell id="t24WGjuX6B1RanKLqHfm-80" value="" style="endArrow=classic;html=1;rounded=0;exitX=0;exitY=0.5;exitDx=0;exitDy=0;entryX=1;entryY=0.75;entryDx=0;entryDy=0;entryPerimeter=0;" edge="1" parent="1" source="t24WGjuX6B1RanKLqHfm-8" target="t24WGjuX6B1RanKLqHfm-37">
          <mxGeometry width="50" height="50" relative="1" as="geometry">
            <mxPoint x="880" y="-310" as="sourcePoint" />
            <mxPoint x="930" y="-360" as="targetPoint" />
            <Array as="points">
              <mxPoint x="960" y="-320" />
              <mxPoint x="960" y="-380" />
            </Array>
          </mxGeometry>
        </mxCell>
        <mxCell id="t24WGjuX6B1RanKLqHfm-81" value="Run Reset&lt;div&gt;Protocol&lt;/div&gt;" style="edgeLabel;html=1;align=center;verticalAlign=middle;resizable=0;points=[];" vertex="1" connectable="0" parent="t24WGjuX6B1RanKLqHfm-80">
          <mxGeometry x="-0.1752" y="4" relative="1" as="geometry">
            <mxPoint as="offset" />
          </mxGeometry>
        </mxCell>
        <mxCell id="t24WGjuX6B1RanKLqHfm-84" value="" style="endArrow=classic;html=1;rounded=0;exitX=0.5;exitY=0;exitDx=0;exitDy=0;entryX=1;entryY=0.5;entryDx=0;entryDy=0;" edge="1" parent="1" source="t24WGjuX6B1RanKLqHfm-6" target="t24WGjuX6B1RanKLqHfm-96">
          <mxGeometry width="50" height="50" relative="1" as="geometry">
            <mxPoint x="940" y="-630" as="sourcePoint" />
            <mxPoint x="980" y="-710" as="targetPoint" />
            <Array as="points">
              <mxPoint x="840" y="-785" />
            </Array>
          </mxGeometry>
        </mxCell>
        <mxCell id="t24WGjuX6B1RanKLqHfm-85" value="Siren On / Off" style="edgeLabel;html=1;align=center;verticalAlign=middle;resizable=0;points=[];" vertex="1" connectable="0" parent="t24WGjuX6B1RanKLqHfm-84">
          <mxGeometry x="0.4165" y="1" relative="1" as="geometry">
            <mxPoint x="52" y="34" as="offset" />
          </mxGeometry>
        </mxCell>
        <mxCell id="t24WGjuX6B1RanKLqHfm-87" value="" style="endArrow=classic;html=1;rounded=0;exitX=0.75;exitY=0;exitDx=0;exitDy=0;exitPerimeter=0;entryX=1;entryY=0.5;entryDx=0;entryDy=0;" edge="1" parent="1" source="t24WGjuX6B1RanKLqHfm-37" target="t24WGjuX6B1RanKLqHfm-2">
          <mxGeometry width="50" height="50" relative="1" as="geometry">
            <mxPoint x="1130" y="-560" as="sourcePoint" />
            <mxPoint x="1270" y="-760" as="targetPoint" />
            <Array as="points">
              <mxPoint x="880" y="-540" />
              <mxPoint x="1000" y="-540" />
              <mxPoint x="1000" y="-920" />
            </Array>
          </mxGeometry>
        </mxCell>
        <mxCell id="t24WGjuX6B1RanKLqHfm-88" value="Send Command to Sensor Node" style="edgeLabel;html=1;align=center;verticalAlign=middle;resizable=0;points=[];" vertex="1" connectable="0" parent="t24WGjuX6B1RanKLqHfm-87">
          <mxGeometry x="0.5085" y="1" relative="1" as="geometry">
            <mxPoint as="offset" />
          </mxGeometry>
        </mxCell>
        <mxCell id="t24WGjuX6B1RanKLqHfm-96" value="" style="shape=image;verticalLabelPosition=bottom;labelBackgroundColor=default;verticalAlign=top;aspect=fixed;imageAspect=0;image=https://cdn-icons-png.flaticon.com/128/59/59284.png;" vertex="1" parent="1">
          <mxGeometry x="670" y="-810" width="50" height="50" as="geometry" />
        </mxCell>
        <mxCell id="t24WGjuX6B1RanKLqHfm-101" value="" style="shape=image;verticalLabelPosition=bottom;labelBackgroundColor=default;verticalAlign=top;aspect=fixed;imageAspect=0;image=data:image/png,iVBORw0KGgoAAAANSUhEUgAAAIAAAACACAYAAADDPmHLAAAABHNCSVQICAgIfAhkiAAAAAlwSFlzAAADsQAAA7EB9YPtSQAAABl0RVh0U29mdHdhcmUAd3d3Lmlua3NjYXBlLm9yZ5vuPBoAABKBSURBVHic7Z17eBbVmcB/78zk9oVLQhTIhXANN63aWqUKtaJIcb3u1uKKsBYhUOquT6tb221tF/VpV1tt+7D1sYDI02pdpa1aqxZcRVvBykW6CrGlKKGEJFwSSMgFkm9m3v0jRCDk8n355puZwPf7L/PNOefNnHfOOXPeyxFON1SFlftHmnZ0oiIjDUNGqFIM7tkKeYKRB5oJpAPZx0o1Aa0gRxW3VqAWjP0iVLiu7hJDdzpG2l+YO7gcEQ3un/MeCVqAhHmsotA0ZbKITFa4CDgX6J+k1hqArSK6SWG9I+565hVXJaktX+h7CrCyPNNyMi5H9WpghsLYIMUR2A76e9RYbR9tepM7S1qClCde+oYCrCpLN+sGTgdmgtyAMCBokTpH6oHfIu4qx9n7Kgs/HQ1aop4ItwL8rKLEsox5qnwJGBK0OHGyT+BZQ41lrQvyy4IWpitCqQDW0qopaug3gGsIqYxxsh7hIWdewUthW0SG5+Gqirm8+kYV/a7ABUGLkwwUtgjc78wveDEsihAKBTCXVV+NuA8AFwYti09sFpV77QUFa4IWJFgFWFE5znTkEUSvCVSO4HjNFPNrrfOHbgtKgGAUYGlVxDJ5QFXvBKxAZAgNEhXVH9uN7mLuGnbE99b9btBaVjlNRZeCjPK77ZDzoaAL7dKitX426p8CrCzPtJz0xap8HTB8a7dvoaDLHdf4GgsLmv1o0BcFSF9ecZ6N8bTAOX6019dRZKulcosf+wdJfxPN5ZW3OBhvpzo/dgT9hCPuJvPxPbclv61ksUpNq77yYUW+mrQ2zgAEecSuzL+HxeImp/5ksKos3azPeRKYmZT6zzyed6zWWcwdedTrir1XgEf39zPTor9BmO553WcyKm84kYwbmZ132MtqvVWA5fuGGNivCHzK03pTtPOuY5v/wKKh+72q0DsFeKx6hGm5/wuM8azOFKcgwg47akxnUf4uT+rzohKeqD7bcty3FMZ5Ul+KHpCPHMuawtzBexOtKfHPwKdqBxiOuzrV+X6iow07uoaV5TmJ1pSYAqwqSzePHP11as73H4HzzGjGcyzZkZFIPb1XgMVqmPW5TwFXJSJAigQQnWpmRp5hlZq9raLXCmAVVj4C+sXelk/hEcKNVl3V93tfvBeYj1fNQvWXvW00heco8I9OaeFv4y0YtwKkL684z8H4ExCJt2yKpFLrmHyS2wsr4ikU3xSwsjzTxnyKVOeHkTzTlV+xdHNaPIXiUgAzmv5DQT8Rn1wpfEN1kmXmPxBPkZingDZPHl6Np0yKQFBRY6q9IP8PsdwcW2curYqYBu+Djk5ItBS+IMoHtlZfEEtkUkxTgGXyQKrz+w4qTDSM/Jj8MHoeAZZXTTDhPdC4FhcpAqfZEZnI/IK/d3dTjyOAif4o1fl9koipPNzTTd2OAMcidl7xTqYUfiOi0+z5Ra939XvXI4CqIM59SZEqhW+oyv3d/d6lApjLq28Euch7kVL4zKXW8qrPdvVjlwqgot9Njjwp/EZV7+3qt04VwFpWOe10DdE+IxGmpy2r7nQ071QBVLg7uRKdeWRbwnXDM7nn/H5cW5yJ4fN+qov7rc6unyrGzypKTNPY3ulvKeJm0uB05o6NMHN0FgPSjj/S1RUt3PBqLY5/aSLUcZ0SFhZ/dOLFU0KzLcOYr6nOT4izMw1ml0SYOzbCxNzOo99nDMvg+uGZPL/L81iPrhDLMG634dsnXTzplqWb00wjfzcw1C+pThdMgelFmdw+LsI1xRmkxzDG/3hrI1/f4GmcR0/sddzq4hNtBCepp2nmz0BTnR8PowdY3DY2i9tKIhRmx+eal2n6PtAOtcyCK21Y3X7h5PFJdWZq9O+ZLEv4wohM5o6LcFl+Rq+fWGWT46lcsaDozZygAMdlX1meaUbT94U3CWPwTMy1mD0mwrzxEfIyEg+puG7NQX5f4dsaoJ06Z2DdEGae0wonjACWk3G5iqY6vwM56QZfHJXJwgnZXJDnrU3s3ZpWT+uLkRyrLucyG16DE6eAtty7KQBDYGpBBnNKInxhRCZZlvfT4s4Gh/1HkhLy3zMiMzhFAYSrCUXqwuAoyjaZNSaL0vHZjOzf61iLmNi0P5C3v422l/3foV0BHqsoVKUkOImCI8MUrivOZE5JFjOGZeLXwnzTgeDySKswkaW78lk4otoCMC1jSmDSBMQFeWncPi7CLaOzyE1gQffXOpv/fLeBF3Yd4cmpucwclRVTuY0HAhwBAFPSL3XgNxaAwKVnwuifm2Ewa3QWc8dFEl7QtTjKQ+818tB7jbQ4yq1jsvinEbF1vu3C/9UGm0leYDLtCnDspI3TEkPgkiHpzB4T4dYxWUQ8WNCt29vKV9bV8UGdDcCd52bz8KSBMRt4th6M0mwH+8qp6MUAFovVgKrTLtijMNvk1jFZzB+fzSiPFnR1rS73b2ngp2VNuMcMJt+7aAD3nN8vrnqCHv7bkHNRFYuiPaNQI77/IKSkG8L0ogxml2Rx4/AsLA+zIP66/Ah3vl3/8aebZcBjU3KYOzb+KLkgF4DH0YGsqC62TIwJQYuSKBNyLOaURJg7LsLZmd7mvixvcLhjfR2v7jl+FFC2JTx75SBmDOtdboZwjABgujLRUpWR0gc3AAakCTePzmJOSYRLh6R7Xr/twmN/aeI7mw/TGD3+fAZlGLz4+UF8ZnDv2myIKtuPrR2CRsUZYRnCcO1D/f+ps9IoHZ/NrDFZZCdhhw7gzzVRvryujndrTh6qR/Q3eXlGHuMG9j7D/bs1rX46gXSLgYy02g5VDDcFEZPZJVncPi7CmAHJO16gyVa+9+cGHnm/8ZROOifX4pUZeXGbfDuyYX8Y5v82FIZboIODFqQzTIHLCzIoHR/xfEHXGS/vPsq/vV3P7sZTTbSfy8/guatyGZieuBCbQzL/A6ByttV2nGp4GJ9j8S8lEb40NsLgrOQfK1Dd7PDVPx3mN+WdH9Zxw/BMfnlFrmfOGxtD8QXQhormWYIMIuBF4IA04YYRWcwek8UVhb13sIgHV2HF9ma+saGew9HO//+vTMzmJ5fEvsHTE9XNTiBOIF0hkGcRYLqX9gXdLaOz6Jfm3zi09WCUL6+rZ0M3Frl7zu/H9y/y1j0iTPP/MSIWqPffUN0wKMNg/vi2IX5sAqvp3tBsK/dvaeAn2xqxuzDFWwY8OjmHeeO8fy9CNf+3kWHRdox60jEEvn5eP/7jgv6+vu3trNnTwr+ur6O8oeshOMsSnp6ay3XDM5MiQ5jm/2Nk+PYKPnjxAO76hP87zvuOuNz9Tj3PfNT9iWyDMgxemD4oKZtK0Lbm6LivEAYsoBWIzY6ZAP88OulNnIQCT2xv5psbD3OopXvXq6Jsk1dm5HUZxOEF2+tt6lsDcgHrmhYDxJeJ6adlTb59a/y1zuaKl2pY+FZdj50/McfirevPSmrnA2wK3/wPbQqgTX609IP3Gpn6Ug2rdh6hKUm28BanbZF34fMHeGtvzw/8kiHpvHndWQxLcHcvFsJhATyFJkvRg4IU+NHaur2trNvbSqYpTB6azrXFmdw0MpP8SOId0NFJoyeuLc7k6StyPXEQiYV3gnQC7QJVasVcXvUG6OVBCWFIm3/etcWZzByVxfic+Ibijk4asTCnJMKyzw4kzacY7aOOkvvzvURjFdA/XreAmiAlcBW21ETZUhPl/i0NjOpvcu3wTG4amcUlQ9K73RXs6KQRC3eem80jnxnoawDcn2uiYex8gFpLhN1hMgfvbHBYsq2JJduaGJxl8PmitmniqqLjEbedOWn0hAAPTQrmUzSE3/8AiLLLcl3dJWGyBp3A/iMuT+5o5skdzeRmGFw9LIPibJMlZU1xOVVmmMLPL8/hppH+foq2E8IdQABc0V2WoOV9ISL4UIvL0x92v5nTGf3ShF9NG8RVhQkdrZMQYR0BDDHKLcdK+8B0wuGi5DVDswxempHneVBnPNS2uOw8HM7naxtaZjB3cDmKr2kq/GBUf5M3rj0r0M4H2Li/NaQel1LP3II9BiKKsC1ocbzkwrPSWHf92ZT4bG3sjJBuAIHoVkTUABDRTUHL4yXf+VR/X7yJYiGsCiAqG+BYnkCF9cGK4y2DPMje4QVKaG0AqLb1uQHgiHtaKUAi0b5esvOwTc3R0FkAAXDSrD9Be6bQecVVAn8LVCIPCcsIENbhX6Gs/eDp409K9PeBSeQxuRnh2NcI6/BvKB/39XEFcI3TQgH6pUlMSRr9IKwbQBj6cZq4jxXAPtr0Jkh9IAJ5SFiG/6irgSeB6II6e0D9W+1/HH9ad5a0AHGfPRs2cmKM3nn/YJSH32+M2YQcL2WHbI4EnASiU5Tn2nMEQsd08eKu8l0gj8mLITx8S02Uq16u5ZsbDzP9lVqqmr0P1gijAwiAmPLsiX+f9LScPYVrQKr9FclbepoC3t7XyrSXa6g95iv4ZnULFz53gNUVsZuWY2FzOOf/vbZd9caJF05+WovFFtFf+CqSxwzq5gvgj9WtXLO69pRQsANHXa5bU8td79TT6tGcsDGEI4AgKzqeJnrK62LjPk7QwYIJ0NUIsLqihWvW1NLQRRygAku2NXHZ72rY2U3wSCw0RJW/1ofOAqi2aT7R8eKpT2v+sA9B+uwnYU4nCvDy7qPc9NrBmBZlmw9E+fRz+1m1M37fg+N1tCZtcZkAL3H7kJ0dL3b6ugjuI8mXJzl0HAFW7TzCTa8d4mgcaTkOR5VZaw8x9w91vUrnFsbvf0F+2Nn1ThXALi1aq7AluSIlh9wTPgNX/q2ZOW8c6rVD5pM7mpnyYg3b4xzOQ+cCJrLBLi14q7OfulwyC3R74mRYyc0QWhzl3k2HKf1jXcL5eN4/GGXSCwf4xY7mmMuEzgagTpd92f3ZwcurNkBbRsm+wrmD0qhscnoMCesNs8dk8dPJOd1GN/+90WH0M/s8b7v36CZnfuEkRDp9Fbr9aBalz50euu1gNCmdD/DUh0e4+IUDvNfNFu8L/p0CFhMC3+yq86EHBbAXFKwBSZ0efgJ/q7eZ/GINj35wakjloRaXn2xtDECqLnnWLi1a290NPZvNHq8YY6pRhk+JJPoSkwans3BChPMHpbH3iMu3Nx0OkwGowbHdCSwaVtndTTHZTa1llQ+pcI83cqXwA1W9211Q9KOe7ovJdGY3uouBDxMVKoU/KJS5uve/Y7k3NtvpXcOOCLqQPrxFfAbhGsiijnv+XRGz94RdWrRWRJf0Xq4UfiDog11t+nRGXO4zdvORb6jyXvxipfCJd2x37+J4CsTtPJe+rPocR9wNQHa8ZVMklRoH/SSlRXviKRS3A13rgvwyVOaQWg+ECUWZF2/nQy8UAMBZUPC8ID1+YqTwB1F90FlQ+GJvyvbahdauzL8HeLbHG1MkF+EZu6rw3t4W770P9WJxHbd6DrCm13WkSJS1TnPzl1gsvTZ+JB5BseJAf9NtfQO4MOG6UsTDZqc1bSp3DE7I+OBNCM3SqrMsQ9cpjPOkvhQ9IB85mJMpHZKw3dmbMJqFBTW2bcwQYYcn9aXoEhF2OMKVXnQ+eKUAAIvyd9lpegnwjmd1pujIZjtqTmF+wd+9qtDbQLrbimqd1rSrSC0Mk8FaJyvzShYN3e9lpd5HUt4xuNEZWHc9wjOe133Gos85Vus1zM7zPJlXckJpZ57T6uwpuFWUH5DaMUwEFdX/cioLv8jckUnxNUt6IL21rHKaCk8BQ5Ld1mlGDbi3OaXDkuqS508mheV7ikyR/0GZ4kt7fR7Z6NhyM4vydyW7JX+yKZQW7XH2FEwVuA8IZ9akcKACSxy3aoofnQ8BJAm2llV/zhX3UYFz/G47zCiy1YA74nHm8ALf86nYC/L/4FYWXKAqXwUa/G4/hDQL3OcOPPRpvzsfgk4TvmJ3gekYDyIyJ1A5guMlx5U7WFiwOygBQpFOy3p8z5Wq8p/AZ4OWxSfeEfTbPQVt+EEoFKAd6/Gqy1T1W8Dng5YlOchGcO5L9qddPIRKAdpJW7HnfNfhbkRmAck/0y25KPA6whJnfuHvghamI6FUgI95onKYYTNLhK8AxUGLEx9SLaK/sB1nOQuLPwpamq4ItwK0s1gtq6h6mqI3o9wI5AQtUhccAl4QlWftqvzXWSyhSxTUkb6hACeyqizdqs/5HCIzcHWGChODFEehzEBWo7razqn744lJGPsCfU8BOrJy/1Azak8WmKyiF4OcCzowOY1JPaJbxZVNKqxzMNd75ZgRFH1fATrjseoRpskExR1pCCMUilEZrKJ5AnlAhLaT0/sfK9EA2ECzQq2o1GLoPlEqXLTcEKPchr946YgRFv4fAvBc/e/bS8kAAAAASUVORK5CYII=;" vertex="1" parent="1">
          <mxGeometry x="422" y="-576" width="36" height="36" as="geometry" />
        </mxCell>
        <mxCell id="t24WGjuX6B1RanKLqHfm-102" value="" style="shape=image;verticalLabelPosition=bottom;labelBackgroundColor=default;verticalAlign=top;aspect=fixed;imageAspect=0;image=data:image/png,iVBORw0KGgoAAAANSUhEUgAAAIAAAACACAYAAADDPmHLAAAACXBIWXMAADsOAAA7DgHMtqGDAAAAGXRFWHRTb2Z0d2FyZQB3d3cuaW5rc2NhcGUub3Jnm+48GgAADDVJREFUeJztnW1wFdUZx//P7obEmohQlAHBAYpCciMJuUG0SfSSFwLoVFEzWqfqjK11Oo62YqtOdRyc2hdtUdsZv+iXvlh0BmurpUBCcrlTYTAkNyQhlwQETEfIgBTDO4Hs7tMPhDHawL179uzuTe75zeRL2OeFnP895+y55zwHUCgUCoVCoVAoFAqFQqFQKBQKhUIxlqGgE/CK/HDtFKLBYrBeQLCng2g6mKYBPAlALoAsAOMBmABOAegHcAqEk2AcIfAuZtpNGnYzmT2JltjBAP87njFGBLBSKyjdXKTZqGbQIhCXAJgsOcgRAj4CeJNFerS7tSEBgCXH8J1RK4BwOJx1mibWaDbfB8ISAFf5nMLnABptor9Ozh1siMVips/xpTDqBJAfrizRWf8hE98D4JtB5zPEQTDegU5/TrRsbA86GSeMCgFEIhHj8xNZywn8BIDyoPO5NLSNiX+1s7XxQ4yCISLNBbBSKwhvuZvAvwRwXdDZOIGALib89qpcc3U6Dw9pK4DCkuq7mPALAAVB5+KS3QSs6Io3/ivoREYi7QRww4LqWTbjDTCWBJ2LZNZalvF4T/uG3qATGU7aCCAcDmedpQlPM+M5AJcFnY9HnALwUg76V8Xj8cGgkwHSRABzi5fM0HXzbQBlQefiC4RWjXDvjpbGfUGnogWdQGFpzQO6bnYiUxofABilto3WgtLqO4JOJbAeIBKJGIdP6q+D6bGgckgDGITf53D/00ENCYEIYE5ZWZ4xcNlqALcHET/tIDSZ2WeW79qy5YT/oX1m3sLINMs0GgDk+x07vaFtgxi8bXc89l9fo/oZLBSuvhZAFMC3/Iw7ithLsGu74tG9fgX0TQChktrZIKsJwLV+xRyd0H7btsq7t0f/40s0P4IUFVVeYxraVgDT/Yg3BugZhFnhx3Dg+Wvg7IVLrzANbS1U4zthbhYb60KhSK7XgTwVQChUNy7bGnwfQLGXccYkhAXIMd4Lh8NZXobxtgfI7l8FRpWnMcY2tQOY+BsvA3g2BygsqbqXid71yn8GwTb4ru540z+8cO6JAG4IL55rw27B+c2XCvd8Ydt2iRdvBtKHgEgkYthk/wWq8WUyUde0d72YD0gXwOETWU+BUSrbb6bDwE0DdOWTsv1KHQLm3lh1vW5RO8bu9/lBc9qyjJDMTSVSewDDpDegGt9LvqHrg6/KdChNAPmlNcuYUC3Ln+Ji0PLCcPVtsrxJEUBdXZ2uM78sw5ciOQysqqur02X4kiKA7k/7H2KgUIYvRUrM6d77xT0yHMkQADHjpxL8KBzARD+HhEm8awHkh6vugNrcEQTzQiWLXe+oci0ADaQ+/UFB9nOuXbgxLiitnk+MNrdJKMQh5qKutqZOUXtXPQAxP+TGXuEem+gBN/bCAohEIgZA97kJrnAPAfe7eSUUFsDhk1nLIL8Kh8I5U7v3HRXecyEsAALfKWqrkAsD94vaigqAmFErGlQhG14saikkgPxw5XwAU0WDuqCfgScI9mzdMKeD8SjO1+rJdKYUllQLrcUYIkYECuLTf9i27QVf2xXzZuGCxevZtjchww+bMKgSQLdTO6EegJhuErFzAzGtGGlLVFdLw2e6YUYA7PE7p/SCF4lYic0BCAuE7MSxson/ebF/7GyO7dcNcxEyWQSEW0XMHAtg3sLINABTRIK5wIrHyy95cnaYCD7xKad0Y9K8eYuvdmrkWAD2oB7EIY9xofDmbyd7qLM5tt8w7YwVgWlYc5zaOB8CSAtoskWrZs9emp3sqY6O6IEhEez2Iam0gkjzXgAMe6ZTGznwjdnjBz+YEYnkJHuyoyN6gAy+BcBOHxJLGxjsRw+AWY5t5FF7+fGs91PpCbqamw6ZNtUA2OVDXmkBMa53auNcAExBLAB9CfHS7CvMv6cigl3bN/aZNlUiU0RAzmsni7wGXilgIxfipakOB7u2b+wjg28FKOFHagGT59RARABXCNh4QW3uCeNvqQ4HhmnVAhiTlz4MwxcBBN8DDMHAspzxgynNCTo6ogfA9JIfeQWILwIIvLjkcJyIQNfMRj9yChBfBJC2pc8VzttTRACWgI1nELBu4FjWXXv2rD+b7FkLeo0fOQXIaacGIgI4J2DjCU4av6io8hownvcjrwDxRQBfCNhIx0nj54drp5iG1oixv4fRBwEQDjm2kU/9yTzz7lQav3Bh1WQNViOAuT7kFSgEHHZqI7ASGPgWrPpTeeadvbHYQLIHCxdWTWaTohj9186kymdODUS2hPUJ2MiBaf3Z48by3nhj0k/+nPk1U9nkTUDS9fHPwfg1WN+kGZZ4tW5bG8dsFTHRMwDmC/txATP2O7VxLAAC93AwVeabzx43lqc64TM1jiJ54x/Xde2mzm0Nn8pJET0zIpEPck8YmxjwfdscNOc9gMgcwPHGQykQPZVy4xtaKp98ENPLEhsfANAbiw0w2T+W6TNViJ1/3+F84UC3ghDAuURr2dZkD81bGJk21Pgp3TFogaOuMxuBRGu0BYDvlz9og+T41lLHAuhsjh2AwGzTJXo4vPmSy5xDF1Gk3PgAoLF+xnVmI8MAvPJ9Mfo6OxscT9BF1gEY4M0Cdm7QBwgXvWBpWOPPduKUdCvsOrMRGLoYw/EGTZcIHdMX+mKHoW0RsXMF43dzi5fM+PqvCxcsnm6ZRgwOGx8AmPHczTffLL+sHSOAbx15k4iV0HQ+VFp5I1hrFrF1ST+BXrQsrANZ53RNW8bAi3B3dfwWG/YT3fGo60IXc+bXTM0ivMDEj7r15RTRQhFCAqirq9N37uvvg//dnJccA3DEhf3lOP/3COId+VAi3jgFAreVC50NXLNmjRUKV30I0A9E7NOU8UM/oxBeD8Gr6l3UByBP6tcrnEOE1aK2wgI4mWc2ATgqaq+QxqFJuZbQBBBwIYDeWGwAjLdF7RWSYKyJxWLCu7Rc7e/TCG+6sVe4h8BvubF3JYAd8cYdBHzsxofCDRx1UyMQkLDD12a85taHQgwm+oNbH64FsLOt/D0IlCZRuGZ3aOaEtW6dSKg5H+Orr5l1AsBy974UqULMj8Wa1u5w60fKIY+rcs3VyJQDmGkBd3S1VayR4UmKAGKxmGkTrZDhS5EcYjwPrLRl+JJ2zKu7deM6AtbJ8qe4CIQNXW1Nrsf+C0g956eRtQJA0m1bCmFOW6bxI5kOpVw8dIFDfb1Hrp46ywTU7WEe8UL39gZpn37Ag5O+iXj5KwA+ku1XQdty0L9KtlcPjnqvtG2Lvg/glHzfGctRy9Lvjcfjg7Ide3LWv7t94ycgesQL35kIMx6VeV3scKTOAYZzuG9f1+SpM/MASlrgUXFxCLwq0dbk2XK7p9U+JuVZz4LQ5GWMMc7a/FkTn/EygOf714qLI1cO6noMoCKvY40xdpg5Z8p2bdni6QETz+v9tLfHjo6zx2VUwUYJ7DFtWuJ14wM+7mCdW7xkhq5bHwE8za+Yo5R9umHe2tkcc3zSVwTfKn71tG/otSy9AhlayTtF9lmWUeVX4wM+l3zrad/QSwZXAHB8iDED6DRM+xavXvcuhu81/7qamw5lWeYi9XbwFeoxYJZ1dEQP+B3Ys3WAS3HwYO9A6PprV585R5dn+DoBg/F6DvU/3NGxNWnJGy8IpNTHcEKlNd8F81s4f7QqkzhGjIe72hrfDzKJwAUAAKGS2tkg648AyoLOxRcIW2HrDyba6gO/5Cot6v4m2ur3JOLltxDoJxjb+wnOAPRswcwJFenQ+ECa9ADDyS+uuU7T+VUAtwedi1SY1hNZj3fFo3uDTmU4aSeAC4RKqmtBeA2A0JWo6QN3EOFnXa1NG4POZCTSYggYiURbY33BrAk3MPP3RultHztBeCgRryhJ18YH0rgH+CortcKSzXcy4UkA5UFnk4TNYO2VRFvDWgie2feTUSKALwnNryqATo+A8SCAiUHnM8QhEN4B0Z8SLRtH1SrnqBPABUKhunHI7l9EoOVM/B34fp0t7Qd4PQEfTMoz690c0Q6SUSuAr7JSyw//u1iHXsHMFSCUQ35p+M9AaCEbHzPrDYnt9R2S/QfCGBHA/zNnfs1UHcgnnfNhYw4RpvH5amIXfoDzk+DxOF/U8RiA4yAcB+MAGPsA2gvYe6Fb7YmW2Fi/cUyhUCgUCoVCoVAoFAqFQqFQKBQKxRjkf6TH5nB3L42DAAAAAElFTkSuQmCC;" vertex="1" parent="1">
          <mxGeometry x="420.5" y="-461" width="43" height="43" as="geometry" />
        </mxCell>
        <mxCell id="t24WGjuX6B1RanKLqHfm-104" value="" style="shape=image;verticalLabelPosition=bottom;labelBackgroundColor=default;verticalAlign=top;aspect=fixed;imageAspect=0;image=data:image/png,iVBORw0KGgoAAAANSUhEUgAAAIAAAACACAYAAADDPmHLAAAABHNCSVQICAgIfAhkiAAAAAlwSFlzAAADdgAAA3YBfdWCzAAAABl0RVh0U29mdHdhcmUAd3d3Lmlua3NjYXBlLm9yZ5vuPBoAAA4ISURBVHja7V0JdFRFFs1mgAAD43FQBlEnRA+SKKOoeJgZ0UHZRllcDiOgEIgjo4iCUQSBEJBlQAwRARUxARFRFAIGBWQL4AIEYhQQQUGSYMgCBBNChP79pl6l+/+q/mu3M9BJv3/OPQd+1/td9d6tt9U/nTAACCOELkgJRABSAhGAQAQgEAEIRAACEYBABCAQAQhEAGu8eFv8ZS/c2u5GwsUH2uL/SgD8gsdviJt291VX/BDXvElNswaXuMOYKCF48LvoS9xoG7QR2sopKSw/HHtbfOu+cVd+GRMVSUquY0Cboe3QhgERIDE+9q1LG0YrpMy6DbQh2tIxAcZ3TIi+N7ZVHimvfgFtira1JMCEjglRf/3jH4pJYfUTaFu0sSkBesW2yiVF1W+gjQ0JMDQ+dl5dXVR0dDT07NkTJk6cCBkZGZCZmRn0wHmOHTsWunTpAhEREQGvvWXLln7LoK0lArCSoUWLmIZ1MuFr37495OfnQ12+tm7dCm3atPF77Z06dYLTp0/DiBEj/JJDW6PNVQI8dO1VGx3vtsgISEpoA+l3doBRN7fFLNNwXJNrroNrhyTD9U+lQotO9xiOCQ8Pg/49YyF9dEcYM/RGaH1FY78W0rp1a6ioqID6cBUVFUHz5s39Wv/ll18OR44cAUVRoE+fPn7Jos05ATAz/H3DaEeNnYaRkbDr4W7gevqfKgqTesPVTWXDtfhLV+i2qQB6bDuuIn7UdJ3xs1+7GyB/sIrTXwyAW+Ivc7yINWvW6BQ5efJkcLvdsGHDBsjOzub3ZsyYAYsXL4bDhw/D0aNHIT09nd/He6tXr+Zj8Ro3bhxUVVXB9u3bIScn54KTYOHChX57gbZt28LJkyehuroabr/9dsdyaHO0fdjwP183wqnQ87dcLxnfi6U9OmnjwsPh71n5kvG9aJ5wizquX7c/Scb34qsl/3A0lwYNGsC5c+d0SuzcuTMcOnQI+vfvD7169YLCwkLo2rUrpKamwvz58zkwbqJsQkICN3S/fv24TNOmTWHLli0wdOhQ2LRp0wUnQGlpqeWa4+LiuJF9MWzYML4elPcnlHDb3xfbao9TgZX3/c2QAEWPae6nUcurDI2PiB0wXB2Hbt+IAEreIGjUwL7zeNNNNxkqEXfxsmXL4IEHHoC77rqL/xs9ABo2MTERBg4cCElJSdw7IDFQcfHx8bBo0SKuSBzboUMHqKmpuSihwCqpw7WYXegB8Dpw4ABERUU5sie3fYcWl55ySoD5XW41JACGBe+YyEaNoXvOz4YEaNXtIXUcxnwjApTnPOw4+zW61q9fz42cnJwMQ4YM4UTYs2cPnD17Fjp27Aj3338/d/14f+bMmVwGM3GU2bdvH/Tt2xd69OhxUYyPZMSKxmzNDz74IK90fDFlyhTu6fAaOXKkYw/AbX/N7xqfcypwc4tLoeapfjoCPHL9NdK4G8bM1hn/zuW5EBXTREvgWMKHMd+XABMeb+94AceOHdMpsbKyEpo0aQJZWVmwYMECThTMCbyGxowZ3T2GEG/1kJKSonqUdu3acS+Ql5cH69atu6AE2L17t985AJaQK1eu5PJz5szxS5bbPuaSKL+Eul3dEvY+2pMbvoAlgMNujNONiWzYCNo9MxXuWXsIum8pgtvSP4TGV8bqxt3KEr5dS+/lbh93Pho/MiLc8VwGDRpkqEh095jMnThxAnbs2KHexx1eUFDA/y0at7i4mHsJvHJzc6GsrIzLl5SUXFACdO/e3W8CpKWlcdlVq1b53U/w2D7w0ya7MeFsQhHRDWzHOYn5pmGJJXV1/UIPha7c37X37t2by+/cuRNiYmIC1WHdb29iDYy7HpsidekqLy/nnuiOO+4IaN2RrCyfNGkS7wf8Bv3Vnz53OCtBmzVrxhsqwQ6cZ5DojQ5IQhykBCIAgQhAIAIQQhF4wEMIXYQZ9fYJoQMiABGAlEAEIBABCEQAAhGAQAQgEAEIRAACEYBABCAQAQhEAAIRgEAEIBABCEQAAhGAQAQgEAEIRAACEYBABCAQAQhEAAIRgEAEIBABCEQAQigRwL1xNbh/OqTCNWWUrYySNl6WmfyM/XdNfVaSUVYsqn3Wy2Pk+58sdzbvPV9oMmvedybz+Qbtu37YD65RA2vv79qm3T9yEFyjE+11sHCWLPO8A5nXJstrzUy/+ARQPsyQfvpM+SjDXpFbPpFlVr1r/z1sjCQzf2rtZ8mPAPwq/K5veYn9vFOfkn+vreIEuJ552Frm+cEArvPab/vtz9PWsylbntubM+x18M0uWSZjtr3MNvmXS10vjQyCEJA6XP7RQ7YwOxk4USbLHD5gv/iDezWBM1XgGjnAVJloYEsyrVys+80+5eWx1jILZsrj33tD+2xOqrweRnDL9Tw3CODcr7JM7jZ7vZUd18YXFwZPDuD+uUBbydkzzDj9zRU5c4zRT2WC68V/Wey+RGZVlzZ8R478zKWvmxrHcL4/fqefwroV1jLbPxO+QAHX2Me0zxkZkZTqs5g+rN3/KwY/931GIrUOLExK8137URARYP0K2QCzXnQ01n30B0dGU956WX4+243SGEYe8PwgNH/u7s/N5yuMFb/fzmii10JvpFsX28GSFxr3uLkOhLHugh+1dc19yXmonTE6eAigvDJOntzH75krsrhQZbzoVt17d1smX+pVc5bHfd0Ylkip1y8V5nNd9qY2T/QcZcWa0SaNME1ApfUtf1v/3Mx0ecyiV42fNWoAX7uXdPgsVQc5a811sC/PvzzngpaBLIFCpasL+f4b43GsQlDHfP1VbSz0JlYsJuL/DUlzUth9LHs3NGy2/McUlGnJxorcrynSlfIES6zWazIsNzDOGd6Rw9WEf+vHjR4ih6kvNxk/iyWv6piNH7NETnDtbJ2GentWTnS5XLD1AXDB2l8++JVPWrd45hlUZbOdyOUO7dfuMVevezYzpGTYTONsWZn+nE81kmlgpESNcJ4kSgwvOBfDtR34RhuDJZuZDr7/1naXit5MmTdFF16MXDuOk9bGyuigI4AuTrOaVbd4IeZi9eC7c32TO/551jvin9Tg5Zh5nC7VnvVtrv5ZzC3rMnUkheISkrskfcZ+XvvbRDgfUx2sWCTnAb4hBT3l6VPaJvGEMvcXG7V5ffqhXm+bhTKz4qR9yXpROoG8tNEUhcme9Dlzt2qiVnJMUxpLGNWrqlJXQYi7yq7ExBhqVY1g2FEN+fo07f7h77X7786TjcpqekujimCfWVUjyuwUbS3f5Wv3M2Zr94t+Ms+b8PNt64K3Fezet8fUVYpZrJTs4K44U6kp7dVUmVRC80VZMs/aC82dYl6NYMOIJZD8YjtazDeUT5drc8vf6dN80XIEd+ERex2IxvKpRsSGEeYV6mdjkqQqxjVxuLBxnrT1rEFDAOX9BcJWcUlKRsbrunjez5iiVKV9lmVsUHzeC0Os54AZ9tlqww4j7niti/e1PG/RC9VUy00mwaBKtn3LGOcvuWtxJ5dof+PIt2UuVjGoR3VuS+YKHvIXyx7LxT8MmvCEMVuTH9XCA3fzcsNDcoEFhzWlsHho5DItDZD3pWEe4M75VCr/dLG54oT2eXqK8c6c6uCcY/YE45AhhAf3saMGre4lQoW0Q5u3mB98tTn4TwPRgKoiP/nAs/uma4tgCzLss3sJgmWWp8smxn9xV1ga4J3X5JzCu/tKf/ZY5LyhJ3FvXavrCkrx/3iR85K48rQQtubWPuuDhYInWWadP1Rr+Qsc17yG8sZ/gp8AUjz17FoxOUO3bkicvbvlJgq2V721r12rWATL4jGbl3atuPtYnmJ20iZ2KPmcNqxy3CqW1rJjiybHyj7f9ZmdfmICKJV62LVUk9pqw9I6+Agg9vpx0rgjSj3dNrYzzGKY2M9HBeLhjF197qTXj5m4snyhfSLJ+/mVGuGY+8dDqkBar2Kvnx/ajBqoktkqkUSPqX4f20jSc6za28H2QogUT98WFrH9M2c7l8mLNbVhU8fy6HiJ1FtQdx9m/xZn9eLO5cmXt/73t/WKIe28FtKUt9O0565eaj5voemFpal4bI7PqDMEkE7OvLHXQQkjHfl65XA3pjzh3xyEljMno3f3GTSHTI98hXkH0nrFSsPoWZZ9BDFXwc1QXmLbJg9KAihvTNcfd+IBjU0HC18m0R3T4htDgXih0mL9mf/iOdZyvi+X/IbWqxh2fHMLx2WkH+9YBNc7gQaKdNTBEruFqst8NzAv5POWTm0b2f61K7Fb6PhtIcO1PKknEgtNtsQRexI+lUSdeilU98qT2OGzkhPOC2oz5qcD80K+b+n4dPhM5ZiXkOS2rg1cB0JWL55/2HqvU+X+NcCC8q1gtpvRdXrheBexGKnK2bymZQlWbUjfb3SEa+K9JDmn5afhWzxPC2sZ41zupZGa3P/oxQ96LZxABCAQAQhEAAIRgEAEIBABCEQAAhGACEBKIAIQiAAEIgCBCEAgAhBCjgBVpIiQRRUS4CApImRxEAmwmRQRstiMBEgjRYQs0pAAnUkRIYvOSIBIhnJSRsgBbR4ZBsArgfGkkJDDeLS9lwCNGYpJKSEDtHVjlQAeEgwgxYQMBnjtrhLAQ4JZpJx6j1mizX0JEMGQRUqqt0DbRpgSwEMCrApmk7LqHdCmkb721hFAIMJghjJSXJ0H2nCwmZ1NCeAhQTOGaQxnSJF1Dmc8tmtmZWNLAghEiGHow5DJsI/hFCk46FDhsU2mx1YxTmzriAAWpLiCEBSICdSOAROAUD9ASiACkBKIAAQiAIEIQCACEIgABCIAgQhACBH8FxalVLUoIqULAAAAAElFTkSuQmCC;" vertex="1" parent="1">
          <mxGeometry x="422.5" y="-337" width="37" height="37" as="geometry" />
        </mxCell>
        <mxCell id="t24WGjuX6B1RanKLqHfm-106" value="" style="shape=image;verticalLabelPosition=bottom;labelBackgroundColor=default;verticalAlign=top;aspect=fixed;imageAspect=0;image=https://cdn-icons-png.flaticon.com/128/9461/9461943.png;" vertex="1" parent="1">
          <mxGeometry x="743" y="-457.5" width="36" height="36" as="geometry" />
        </mxCell>
        <mxCell id="t24WGjuX6B1RanKLqHfm-109" value="" style="shape=image;verticalLabelPosition=bottom;labelBackgroundColor=default;verticalAlign=top;aspect=fixed;imageAspect=0;image=data:image/png,iVBORw0KGgoAAAANSUhEUgAAAIAAAACACAYAAADDPmHLAAAABHNCSVQICAgIfAhkiAAAAAlwSFlzAAADsQAAA7EB9YPtSQAAABl0RVh0U29mdHdhcmUAd3d3Lmlua3NjYXBlLm9yZ5vuPBoAAA6YSURBVHic7Z1rjBxXlcf/t6q6qrrn0T0zcZLdsCsEiY3ECgn4AvsBoZWWLAseO1JskkAcewWRsgIhIXYRfOIDrBDalTLGS+KFCTOefbB4E0wMZCEhy8POYw0h8tgmsZ2HHT9mpsfTPT3dXY+uew8f2j3umenu6erqrqrurp9kqTVdde9x33+dc+reU7cY+pD0oR33EdFDAN4HgAHsZYAObtnz5CHGQEHb5ycsaAP8JD05PkQKpgHcVeeQp1SFfzL1yZ9k/LQrSPpGAPNTO9/JGB0B6C82OfQ8J9r5J3uPnvbFsICRgjbADxamxj/EmHi+icEHgNtlxp6fn9m+s+OGhYCeF0B6avxBMDwDYIuL04aYYE8sTO/4BlFve8me/c+d2/9RLZmMfRvA33ls6rBg5r5b9/y80A67wkZPCiA9Of6npOBxAB9oU5MnBaOdt+45+kab2gsNPRcC0jPb3ycUPI/2DT4AvEcidmLx0Pa/amOboaCnBJA+tOM+EuwYA/68A82PCWI/W5je/qUOtB0YPREC6Ae75LRhfx0gXwaHGP7tZl37HNt92Pajv07S9QJY/u6uUUuxvg+Gv/a56+MQzt037/vpnM/9tpWuFkB6ZnwbCRwB8K6ATLgsCbrrpn1HTwTUv2e6NgdYOLTjb4nwIoIbfAC4TUjs1/NTO/YEaIMnus4DEIGlD23/R4D9E8IkYEb7t+j6F9juwzxoU9zQVQKYO/SRAYn0KQB3B21LTRj+N8ale0f2HckGbUqzeBZAJpP5PIHub4cxjSBRUqkw/07GnUSn+/ICSbIlDdxyHrJqdrwvRt8fS439s5c2FM9GEN0Ghvd7bWczmBQDG3pbp7vxDAM0AO/2pTPCca9NhCeGRgRCJIA+JxJAnxMJoM+JBNDnRALocyIB9DmRAPqcSAB9jueZQDfkl3uyrrLtDCYHfOvLVwFYZtcX0PiCnwKIQkCf46sH0BO6n91FNIGvAhgYivvZXUQTRCGgz4kE0OdEAuhzIgH0OZEA+hzPAmDCVtthSIR7mGN6vq3yJICFmfHb+YVjn/JqRERriCsv3pOe2umpILfleYD5QzvuhKD/grBGmj2nZJda7a6viKmx5g50SkPExC/np7bvvWXv0cdb6aslAaSnxh8kon91e34uk2+lu75j7JamrykAGGSMHV6Y3vHNLW+89yvsq18Vbk52FQLe+N6H9YXp8SliOAifZxEjGsIA+lL6HS89uXRwV9LNiU0LYHH647clpKFfAXjAtXkVWPSvqX+tQviYo1svpmfGtzV7SlNX8fzMjr8Ugh5nwK2tWweM3ezKtUW0xjYh6Ln5mfF7brn/yac3O3hTDzA/Pf4pJugX8Dj4Ef7BwEaZwFPNbGdT1wPQ/31YSV9Mfs2vbVci2o4MsG/MT29/jx3XP/1nuw8btQ6q6QGuPrZry+Kl1P9Hg9/9MLD7dLP0cuZ7O99e6/sNAsg8ce++WMy5TEK8t+PWRfgCkdjqKHQu+z/3fGb9d2sEUPjRA+NOsTgpBG9yJiKiWyBBSsk0D64c3fOJ6r+vCiD3zJ4xpimPxUdGmCTL/lsY0VEkWUY8lWJyLPZI7uiDN63+vfIhxpXPAhiTZBnxsREoWrTG0yvImobE6AgkRQaAkVhMPFT5blUAROyjlc+MMeipJNRB/8qTIzqDOpBAPDUMSDdmmIjozsrn6tvA22qdLMcUGMs5QHh/k0p2cdlzG/1A6iZXs7k1YYxBSw5B0bQaX97YSrdaADUTP1lVkRgZgbmcg3AcT0Zx7mqdIqJFJFmGnkpWXH4tVuN7U2sBkiIjPpqCotdQU0SoWBfvN6XpFT3GGPTkMGylCDvf2jN+Q6kop+gk6kDCdd7meklXHUhAVhQYyysAuXPpanRn0REaxvtNaKkkTNZUJMZSkJSoJCBoJFlGfHSkpcEHPBR1lDtOwRI11xgifIDBRnx0ZM0tnls8FYUyxqBnXgB77YjrcBDhDXb5GOKLv/E0+EBbyroI2uJxlIw58G33A7Eo0esovAT5/A8Qy77cluba9mBIrPAa1NkJYOVSu5qMWI+xhNipA20bfKDNTwZJpQzUMweAq8+3s9kIALT0KvTT+yGbV9rabtvTeAkc+sUnYOfehNi6G2DRyqI3COzNp6Ev/KIjeVbH7uPU7EtwTl1DaeseMG24pTZKloOS090Pk8SUGGJaiz8ztyCd/U+ouTPtNaqKjt7IK8ULkGYnYN1xP1jy7a7Pt20bZtFqv2E+QnFqSQBUmId6bhqyle6AVTfo+NPBEs9Be+VR4Mpzne6qd1g8hfiZAx0ffMCnp3skcOhv/RD2ygWIO3YDUnN5gazIrbvPkCDH3ORA5XivLTwDkPfl92bw9dct5wWLcLY9ADSRF+hxDXq8T1YgHbMc71f+4Gu3vm8QoRgXoZ56GMj23Iu4W4YK84jN7vd98IGAdgiRnBWorx4EuxzlBUjPluO93fl4X4vAAqwEDu3SD2Hn3eUFvYP/8b4WgWdYavYlOLNpOO/a21Re0BM4JpSz/wFl5ZWgLQnHJlGK+Vb/5AX5OcRmJ0Ix+EBIBACU8wLt7EHgsud3IYaX9EnoZw5AtheDtmSVwENANYw49EtHYOcvQtyxC5BCZZ4HwhHvaxHKX7icFyxczwu818gHimNAfvXfEcufDdqSmoQmBKxHMS9BnX0YyL4etCmtU5hD7OREaAcfCLEAAEDieejnvgN26VjQprjn6m+hnt4PuXQtaEsaEsoQsAbhQLv8I9jFSxC33x3+vIAE2OtPQlt8DkC44n0tQu0BqlEzv0Ps5H7AWAralLqQnYd86lFoi8fRDYMPdJEAAEC2rkI7PQFaejVoUzZAubegzk4gVuyuuYyuEgAAMF5E/Pwk2Js/D9qUG8ydgPbKtyE72aAtcU3IA2odiKDNPw3bmIPYdi8gBbSjzWq8797Jq+4UwHXU3Cz4bBqlrXuB+JivfZO9AvnsDNRCd7n89XRdCFiPbM5BOzMBuubf3DrlLkKdnej6wQd6QAAAwBwD8dce8ycvuPoitFcegez0xm4nXR0C1lDJC4pXIO74BBBr8zsKhQP2+lFo13qriKUnPEAFEgLOheMQz34RWG6fe6ZiGvTsP0Cc/ylI9NZDsD0jAG6XULyWgSiVIKwC+LGvAW8+67ldmnsJ4pdfAS9mqvrwtldSmOgJAThFA0Ymu+bqJM7BZ2dAv3+05XbpD/8N/ttvgaqeTiIhYGSyKJmmJ5vDQtfnAGZuBY5RezCICPytF6AU54EPfBmQm9yihjjoxMPgc7N127WWVyBKHNpQdz8O37UegKh8JdYb/AqyqkKTcojNTgDFzStvyVqBMvsIdH5l091SS8UijKVsV+cFXSkAUXJgLGbBG72FTGLQhwYRH0mCSRJkawHa6QPAYoPa++xr0E7+CxTjApgkQU8loaeGwRrswsFLJRhLWc97KAZF1wnAMS0YmSyE4HWPkVUVA2OjUBJrbwWZKEJ/fer6fMG61bpLx6Cf+y4ksXYLPEXTkBgbbegNBOcwlrJwzO57kLWrcgA7X4BdKNY/QGLQBwY2DPwaSFxfR7gCsfVeECTI5w9Dzf6+7ikVb+BYFqzcCqjGtrlEBHM5B9Vxv1dfkHSFACo/LrfsusfIqgo9OQQmNefU1Nxp8Nn9IKZAaXLXDUXTII/FYOXycKzaV7tdKIKXHMSTazdoDiuhF4DgHGa2wT7FzVz1dZCtBdfnlL3BcENvwG0bxaXMZvv1hoJQ5wDcKv+Q9QZf1mrHej+4kRvUfnq5nBdkGnqtMBBaAdiFIozscu1t6isZfirZtMvvBBVvUO9OgYhgZJdhF1rbW9kPQhcCiAhWbqVuRi1rKvTh5mO9H2yWG9j5IoTDoQ0PgbFw5QWhEkDDeO8h1vvBZrmBY1oQDi/nBXJ4xBsaSxpNqAQZ693SKDcQjgNjaQncDk9eEAoB1FrMARCaWO+WRrkBCYKRyTWez/CRQEMAEcHO5WuurIUx1rulfm5AsPMFkMOhJoc8vTDcK4EJgISAkV3euLYe8ljvlka5Qck0ITi/7imCEXogvfJS7cKKbor1bqmXG/BSCcWlDHgpmB1RfReAY5gbl1C7NNa7pV5uQFzAzCyjtMnSdifwMQQQ7HxxQ/LTC7HeLbVyg8r8B3cc6IOD8Csx8EUARAJmdmXt7U+PxXq31MsNnKIBo+T4lhd0vAfhODCuZdYMvqyqGBjtzVjvllq5QSUv8KP4tKMCcEyrPLlTeWNodZVOiGbDgqY6N6gsIRP3p/i0YyHALhRg52/Ee1m9Huujga+LomkYqMoNKsWn5PCOFZm0XQAbijf6PNa7pTo3MHMrgKBykYnjID7c/iKTtl6O69fAo1jfOmVvcCM34JaNYiYDwevXQrZC2wRQqYIRDi+/TzCK9Z5ZnxsIh8O4lqlbjtYKbRkdu1CEkSkXb8iqWs5qo6u+bVR7AyKCmc21/ALvDW17Obm6eIMxBm0wivWdYn1uUMkL9OSwpyKTlj1A5TbFMS0oWnTV+0W1N+CWDeN62G2VlgTA7fJEBTkc+tAg9FQU6/2kOjcQQqCYycBp9JRUA1yHAKdowMznoagqtKFBMDncZc+9TPW8gZnJQh0cgDqQcNdGswcSEeyVPBzTgj44GLn7kLA+NxCOAy053PRaUrXfrru1ZWW5koRAYmwkGvwQUskNQIBxLQNqPF+wOtZS1V9q7sEqHAdGdhkxXbse6yOXH1Yq3kAdTMDILNd9epoBqztY3/AAhBPrD3QMC1a+gHhqOLrquwhF0xAfTaFUNGrunyDAflf5vCoAJuM7WHUN5flnkChX6URXfddR8QaQ2IZJI4nR5OrnyofERyaPM7CDJAh2wUBM16KrvgdQNA2xRBx20QAJAWJsMn7n5K8r36+5ede1t32OO6UfqwOJ6KrvIZgkQU3EIbjzs8SY9NCa72qdkH/qM3dKTPw9gA8C2OKHkREdYxGgFwjs0YG/mfzJ+i//CKBtJl3RcwRVAAAAAElFTkSuQmCC;" vertex="1" parent="1">
          <mxGeometry x="420" y="-980" width="40" height="40" as="geometry" />
        </mxCell>
        <mxCell id="t24WGjuX6B1RanKLqHfm-111" value="" style="shape=image;verticalLabelPosition=bottom;labelBackgroundColor=default;verticalAlign=top;aspect=fixed;imageAspect=0;image=data:image/png,iVBORw0KGgoAAAANSUhEUgAAAIAAAACACAYAAADDPmHLAAAABHNCSVQICAgIfAhkiAAAAAlwSFlzAAADsQAAA7EB9YPtSQAAABl0RVh0U29mdHdhcmUAd3d3Lmlua3NjYXBlLm9yZ5vuPBoAABIVSURBVHic7Z15fFzVdcd/586MNuMNgmyNJGMWB7CKsTOL5o2tRKY0KR+gYYn5QNlCcPgkDVCctJB+moS0JClrwhIC/SRhp9hQltSUpC0FgYVG0mgwEMs22MbG0oy81rKN1pm5p39IDrI1M5r37pt5M9L7/uf33v2dY9/jeffde+65gI2NjY2Njc1UhKx2IF901tWVTDu+7ISyJJ3ATCdIhmvsfUl8yMHOw5L58MDx+/cu+P3WIat8zSeGAyC2zDNPSnENSZzCAh9LSjw27531MTOdM0KX9oXTBAkvMS1kxgIILADjFACz9egQ0APQTgBdTOgkxvsOB78/pzn8cW48twZDARDT/Bcx+DkAZWOkPhXgC6pC4bdM8m1CGBA99fVLIOSXGfgSAB+A43NsthfAOmZ+E4LerG4Jf0CAzLHNnKE7AHYFg5VJjm8FMD3F7b00LBe6I5F96q6lprOurmTW9IqvMHAZEb4MoDJXtrJkD4NeJilfdJcf9yY1NSUs9kcXugMgFvCvZOJfZ3jk4epQ+EYFn1LbrfcsY4e4FoxLofPnPI/sB7DaQfzo3JaODVY7kw26AyAa9P8YzLdneCRB7Fjkbm3dpOAXAKBL08odnLySwTeCcLaqXp5ZB/AjvYcGXqzr7By22pl0OPU2YObkBFHjBCXuAXCBQZ+wv75+xoBD3kycuIUJJxjVsZgGgBpmzajYE9W899IwP+yORPqtdupYhO4WhAn/Egw6P1rv/Qu90nuXLp3eHfD/46CQ24lxB1C0nT+WSoDuRonYGg34b9py3mmlVjs0Ft0BQMBAVs8Juo9XrHBk8ywDFAt6r47L4Q+J+CfI/Ug+7zBQBeIHK3pnf9St+a/hApmD0f8LkGUAMHBWT3TH9RM9F9W8S2Kabx0zPcVAlQF/io15BH6yJ+D9326///NWO6M/AJgHs38Ud2zzeGamvNfY6IwG/bcB1ApgqW4/ihwmWi4cvCEa8N1p5WshJ2OAMVSWlojbjr3YpXnOig31tYP5TgAlun2YJDDgAuG28t7ZHT319Qut8EH/GIBF1r8AAEDAqp5AYP6RP3dr/msERBuAJXptT1YI+DMpZEcs4F9pgW19xJb6G1jy2/pa8XP9s3qvqzgw+24QbtZrcyrBoKfFcPJb+fpkzNkg8Gjo8ore2RG78yeGwFdziWje0eDJy4DYwGcgGwgAEIA6A+2mKktcCdES0zxn5NqQ7lfA7mW+UxJJbMuFM3lgEKDdIN4H0MCRLxoCnAzMAOFEMD4HoNxiP4+wn4W4oOadttZcGdAdADsaPFWuhLB83T8TBMQBeleCWwn0RxbUiThvqWlv359N+13BYKVMDn2eheN0IvZIhlcAixlHJ5HkiX4CXeIOtf9XLsR1B8D2xsWzSoZcB3LhjCI7QLyWWPxnEo63a0MhI6+qtOxprDsuPlixHISvALgYgNtM/QkYIMJfulvCOgffE6M7ALacd1ppRe9sXZ+CuYKAg8x4FoRn3aFwiADOh10GxC7N1yAJV4FxBYBpeTB7SBDOrWoJh80UNTQfHdV8SRj7gjCLLQA/4CodeLKyqfNTC/3A9sbFs0qHnF9n0CoA83Jsbr+DuNHMXAOjAfAp8hP1x0BbGbijuuakZ+mFF5L5t5+ezrq6ktnTp13DhB8AfFIOTXW7EvBVhsO7zBAzGgD7kN+l2j4Q3dt7sO9nhZxcAYwGwoyKbwP4JwZSroOYQEvvof7lZvxbGPsZ17ceoAqD6F7hiD9c6J0PAHWdncPuUPiBhEgsBOh3OTITnDW94hdmCBn7BQj6PgQj30uZSRDeIEnPJ8nxUm0o9H95tm+IqOa9AqBfAZhlvjpfXx3qeExFwVgABHzvWZyjlwTQSsAL5Ez8W9W69Xst9GVCYss88zgpVgPQTJYeFFJ4qtraNhoVMBoAIRACRo2azBCA/ybC86VJ8R8ntLUdstqhVIymsz8KwnUmS7e4a+Z/0eig2NjGkID3DSZabqRtjhkE+A8grOk9OPBSIY4ZogH/rSC+E6amhPGt1aGOe4y0NPgtL0ydZTORMoAuAtNzM2dUbIpqvqDVDh1LdWv73cz4BkZeYyZB/xwLBM400tJQAEhjK4J5hYBTAKzdXV8/x2pfjqWmNfwEGFcCMGsXURlT8pdGGhqdzSv4ABjl+DjxlVY7kYrq1vAaEG6AedPX50QDvgv1NiqGeQAlhODTrPYhHdUt4ccBHpczaRjC3R0ej64VS0MBQIyCWAzKCkaX1S5kojrUcQ8IvzFJ7oyqErpBT4PJ/gsw6HBgjdVOTET/zAM3EqjNHDX6UZemZZ3QMpnHAIMgvq4YCjos+P3WIZHEFQQcNEGukjh5bbYPGwyAgvwKGAb4AxDWMNP3WIoF1S0dq612KlvmtrdvB+hvzNAi4u9yln1rcCbQfxOIHzTS1gSGAWwloJOJNjKjU0j6uO/4/RsmQ12fqOZ/BeCvquoQ41J3a/iliZ7TvT0cABg4lIedjYcJ2MSEjZC0iQU6XYI3VTaHdxRzSZYJSfBNcOIcpK7AkjVM+B6ACQPAYD6AdwlA7xppm4IDADaCsZHBm4RwdEIkNrubIztN0i86Yprv+wz8i6oOQZ7pDkU2Z37GIN2a7zUCztPRZC8BnQBvZqCTQZsSTrlx/rpIj1EfJitdmlYuKPEhGLUqOkT8U3dLxw8yPmNUfJvHM7OsRDyOkQzZscQAbATxJmZ0CqJNGJIbc1k4ajIS1fzXA6w6P7DdHQqfmilZVvlVvjPoOdXJYoEUojfuGtp8ctN7vaqaNqPLxzMqtgGoUdEhKRvcbZHmtPdVxG1yS3fAu4qIfq6mQr+sDrXflO6ulandNhMwFOfHANVZV85Yq8kOgALm1EjkIAjPK8qcPrY+w7HYAVDgCMYTqhqS5J+n1VcVt8ktc0PhdSOFqxVgPjfdLTsAChwCJAivKIosS3fLDoAigCX/QVGiptvvT7mTyw6AImAwzm9BMX+QhTwr1XU7AIqAUyORgwDeU9EQEHYAFDME7lASELwo5WUlUZv8QWqrryT51FTX7QAoEliy4f1/AMCEuamu2wFQJCQdye1qCpQyANIuBu3x+ebGHfgHCPoCwGmzTJkhwdgpiJ5xh9rVvldt0sIAxTRfP446qEsfw6XTyk9uajoqpT9lAIxm/LwOnXX7Gbi/JhReZdRBm8xENV8XFJaHiRLz3S3rPxl7bdwrYCSblJ6GgUMbCLile2l9Ie4aniSwUlEMAce4PMNxARAN+hZBoawrJeXXjLa1mQhS2jcQTzrG9fe4CyTxORUjoClx6oclsGI2NDnkxAEgwWpTjgqDFJvMCMWdxEJmEQCCSKmqhiicQsuTDiYytI/jCCTEuEO8UgQA4ipGmO1fgJzBcoZK8wTLcbu6x48BVPf9UcEe6zoJIKUAYCHHVUsf/xnoSO5WMQKobWawSc3oOYMpZ/Oy5XDv8Li9GeMCYO669fuhtvZcEfN41L4kbMax1+ebA7UB9uFUVdNSvAIgAajt4nE6c1kseUoyXCLmK0qkPCwj9WIQIapiiR0y5dqzjXEEp87o0UHKxNJ0q4EZd5ROBAE+lfY242GwUgAQeEuq6ykDgBUDQDK8Ku1txsNMSqV5JYuPUl1PGQACvEnFGAGLdi1aZMGBEpOTPY11x5HiSavp+jRlAMiE+KOKMQClyYqStLtRbPSRGKpYBoPVXP6ESERSXk51sbq9fQsApRLsTHS+Snubz2CG7gqgR0HYd2wewBFSBsBIQQFqUbOJ89nefq4MAwShFgAkqT3dvQw5gfIdFaMAqrsD3i8pakx5YppPUy0VwySb0t1LGwASeEvFKAAQ6HpVjSmPCQdMkHS8kV4+DQyIHs3XzVBK8BgYLo277bIxxtjTWHdcfKgiCsD4IhBhn7slPCddab20vwAESGa8atjwCOWuQafZR6RMGRJDFddDpfNHeDVTXcWJ9gWsVTQOIvq77Y2Ndo6ATnjFCgcDf6ssJPnlTLczBoAk5+sAVH++3SXDfd9Q1JhyRLs+uQrAyYoyhyW5/ifTAxkDoDYUGiDCc4pOAIzb9JQwn+p01tWVEPGP1ZX4+YlOUZ9waxgBj6s7gnmC47eaoDMlmDm9/DsA5qvqkOQnJnwmG6GY5vuAAdXlyAFHkupGyqLbpGNHg6fKlRCboT742+wOhRdmqhIKZLs5lGDoRKpjKE86+AETdCY1rgTdB/XOBzMenKjzgSwDoG/mgSeVK1WNcGEs4F9pgs6kJKb5LwboChOkDjj7h57K5sGsAmD0IIaHlFwahYnv7/b7833wdMGzc+kSN4N/bYYWEf9q7gcf9GXzbNb1AeKO0kdNOtNmGjn4WXtu4DM6PB6Xg11rAKSs5KWTQ0l2ZV1fOOsAOKm5+QCAuwy5NB5vyWDf4/Zq4QhVpXQfmNPW8tMDMR6sDYWy3kWsq0JIEs77QSadw0e4PBb0326KVhHTHfB9G0xpq3nrZO9AXN6rp4GuAKgNhQbAZkxQjML8o6k8KOzW/CvInC8sAAAzbh8tKZc1umsEuWtOfpKBsN52aSAm/teo5p1yU8UxzX8RgZ+BSXWaGNhQXTZN9yDS0Du4e5n/bEpyB1Tz1D5DgrBy5CzdyU8s4LsEhNUM6DrnNwOSiZbVtLSH9DY0FH01ze3vg3GfkbZp/WD8Nhrw3TnZB4axoO+bTFhjYueDgYeMdD6g8I/dpWnlAon1AE43qpEKZjwzMPvAyslwCORYuLHRGR3qu5fMWOI9CtrqKu1bUtnU+amh1iqmu4O+xcQIweSqIAS0J0j+9byWyDYzda1idH5/DYAGM3UJiBNhaVVL2PCYTGkAUtMSfg/gv1fRSAUDfgeL9bGg92qztfNNTPNf5EqI9TC58wGAiX6o0vmACe9bBiiq+f6dgEtUtVLqM16kJFZVh8PmzD/kiZ6GJSfKpPMXYFyZGwv8ijvUcUk2Cz6ZUP4EIYBLSvuvBeN9Va2U+oRL4cTmaND/4y3nnVaaCxtmwoDo1vzXyKRzY+46Hx8ODvPXVTsfMHHEHfX5asmJNsUs4oww8DGBftYznHzKG4ko1TIym5Esav/lDP4hgDNyaGqvRDJYG3p3qxlipn5y9QR9PsloAlBhpu546BNmvqukrP9po6Nfs4h5PBWyhK4m0C3IbccDQJ8En1Mb6ki700cvpn9zRwO+c0FYi/zUCzwMxmoJ+dva1khbHuz9iZ6gzyclrgLhKhgoq2uAYSn44tp3Ol4zUzQnky49Ae95kugVACW50E/DFgK9ysyv9R7ufztVPRwVOjwe1xwXLRVE54PwV2DkM6dhGMSXVbd0/M5s4ZzNukWD3q+CaQ0AKwZuhwG0g9HBRBE48JEYSG5xRyJZHcPapWnlRInTBdNCZl4EgoaRqidWZDbnrPOBHE+7dgf95xDzyzAhx80k9mCkANZ+AEMA9RF4mIHZICoD82wAbqBgah0eBuOS6tbw67kykPN59+6gb7FgvJbLr4NJym6S4nx3W1vKwg5mkfMjY2pawu8RO4K5mieYpKwnh/TnuvOBPJ0ZVNXauoPiMsiMZ/Jhr6hhrKZhuczdHNmZD3N5X3qNat7vAPRz5PcLoRgYYKbv1rS2P5pPo5asvXcv859NCX4ShLOtsF9oMLDBSXzF3JaODfm2bcmxcTXN7e+7y6Z5QfR9AKZ+rxcTBMTBuGtg1gGvFZ0/6oO1jJ5Q9hCApVb7kleImomT33SHIkpFOZXdsNL4WKIB34UgegjgyV5oeicRflrVEv5Npsod+aJgAgAAdi1aNE1OK72ZgVUATrTaH1Mh7CPGTw4c6n/E7GlqFQoqAI4wGggrGbgVIzNzRQx9AsIjg0PJR/Xm7OeDggyAI3RpWjlx8jICfwsEpWLJ+YZAbQAerCqteJ6ampROYsslBR0AYxn9dLwBhK8BqLTanzTsBvC0kOLxqrY2pdO+80XRBMAReMUKRzS284sk5aUALgJQbaU/BGyTwFoQra0uqXi7kP+3p6LoAuBYYoHAmSySy4lpOYMbAMzJrUX6BMTNYA4RO99wt7Yqlda3mqIPgGPZ0eCpKkk4FjHjbCJeCOZ5TFSDkdPMss1S6gOoB+AYA5vBvFmQ2JiEY0NtKKR0nE6hMekCIBPbGxfPKhssm8UUL4N0ToOTK5CgfgCQLk44h3EIg4N7sq2uYWNjY2NjY2NTrPw/t+A1PhDzzqEAAAAASUVORK5CYII=;" vertex="1" parent="1">
          <mxGeometry x="1023" y="-378" width="36" height="36" as="geometry" />
        </mxCell>
        <mxCell id="t24WGjuX6B1RanKLqHfm-113" value="" style="shape=image;verticalLabelPosition=bottom;labelBackgroundColor=default;verticalAlign=top;aspect=fixed;imageAspect=0;image=https://cdn-icons-png.flaticon.com/128/5172/5172391.png;" vertex="1" parent="1">
          <mxGeometry x="1023" y="-538" width="36" height="36" as="geometry" />
        </mxCell>
        <mxCell id="t24WGjuX6B1RanKLqHfm-115" value="Cache Manager" style="rounded=0;whiteSpace=wrap;html=1;" vertex="1" parent="1">
          <mxGeometry x="120" y="-720" width="160" height="80" as="geometry" />
        </mxCell>
        <mxCell id="t24WGjuX6B1RanKLqHfm-117" value="" style="shape=image;verticalLabelPosition=bottom;labelBackgroundColor=default;verticalAlign=top;aspect=fixed;imageAspect=0;image=data:image/png,iVBORw0KGgoAAAANSUhEUgAAAIAAAACACAYAAADDPmHLAAAABHNCSVQICAgIfAhkiAAAAAlwSFlzAAAfowAAH6MBdiuSpAAAABl0RVh0U29mdHdhcmUAd3d3Lmlua3NjYXBlLm9yZ5vuPBoAAAteSURBVHja7Z3pVhtHFoDzc37kKWbyIw8yZ37ME8wDzDsMTmInXuJsk3g8js1iwAK8ILSBWCTEvgiEECAhdpAAI7EZLxjMDjV9OyPo6k0tVavVErfOucfYVleX6n5969a9t4vPCCGfscjW1so/OZnnhKDwsp9MLtbH49G/sM6tEcKq/H+gwqWSSCyQxYWxg0KAgBWAKCpcHoD52WBBQMCi/D9xco4KVwagECBgAeALVHZ6AMwOAQsAX6KytQFgZggQAIMAMCsECICBAJgRAgTAYADMBgECkAcAzAQBApAnAMwCAQKQRwDMAAECkGcA8g0BAmACAPIJAQJgEgDyBQECYCIA8gEBAmAyAIyGAAEwIQBGQoAAmBQAoyBAAEwMgBEQIAAmByDXECAABQBALiFAAAoEgFxBgAAUEAC5gAABKDAA9IYAAShAAPSEAAEoUAD0gqDgAHi9vEjCwxOkz+0nEe7Pzc1l4xW8FiPDvhHi9wyTmfEoWU/EqP/f2IiT16uzhkgiMR+6FgCsJ+Okw9pHSkvqSem/rqS1pstQ5W+sLxPLXSc1hspbNjLSNZpPq/N5UQOwElsgdT80UpOekrIbVv6JNGos4aEJ2XGAuCt9ZGszLwD8uagBcJV5FSf9xS9uQyd7ZWmBh05pPLAs5AGAL4sWgFBfSH6yuaXA/thDZiaihk94oHOE1P3YJDuuiq8bOEjmEQC9pMXSKZlk7/MeEpubza+3z5n6qdEIaXjYKhnfaG8IAdBLnv9EP2mWe06yubFsmi3f4vSMBABffR8CoJeUldDrre9Vr+n2/bUiBxV8FgRAJzHB06XBStEAOEs9CAACgAAgAAiAeQFYW1nko4sIwDUDYGFqhrz6rZnvq/yGlTRXd5C11SUE4DoAAImk6tsOSZ/OUi8CcB0AGG4fUQzhxhfmEIBiB6DHNagIwGx4CgEwGwAb63GJorod/Vn3B/UDSvF7loziq1/dVH+2R20IgB4CT6VYWeOD40x9NlX6JEmlQEeQqU9PXTfVZ9W3dgRAD/HV90oAgNoA1iTOaM8oabV08mFlPbKJwa6gZJzRYBgBYCq8AHMtqv6BShwz1gAuzc5KALDccxmZFi4OAGDNB7PPP/kl0rUanDhTFoJyVqX+QbNkvFAqBgUiAEiOaxcLG4DV+CJpq+3inTElL93+e6up0sBylUKV3NqvNH6wXr2NgwiAnIBnrzRxIM/uOHhIzF4OHgmEZS2XUKZCUQRALM4nHtVJM7ryl6VyueZ7l+p3yVHNYGEDMD4wpjppIGP9Y6YHwFPXpfodyr+y8uFoBEAhSQN1/+BMwUSJJ+/pzQYSm5szrfLhvQA5pYMj6HjiJf0t/lwpv/i2geA11//WIplMx2OPKZWfXIvLOrBtdd1GvbNQfHGAxOuY5A0cmOQNnXYCyURMt63ZVCgifUmkqgMDQbkwq/OT0+y7DucAefqNjdTcd5EJ/wRzf/3NfvptpRIrX3CCADBKfH5OAsBQe0DXqB1AwGoJXOXtVJ+QHcRcQI7SwR1WtrJw2IaJ+2R1LsXvLmA62MQlYX5PQNInWAWsCEIAEAAEAAFAABAABAABQAAQgGIFQFxnWP2dnT/3BwG4Rq+GNVd18Hl7CC2zBpYQgBwLZAFzEWOHF0Eg38DaD1QpiSuBmo3NAxQ3ALZHrZKcOnNlsI4CFcZiK9XvHkIA9BL+bEBxjv2mjS/pZnXeWIpAofwLcgDiE0xAJoMRBEC3hBBnqiu+sSlW2UBmz/AKYJlahZTUP2jRLWWNAPxfwFFTmnBI6yYTxh0UOTkSUS35ypNVKm4A4KkbaB2SLRXTI53L+hJIquw7OhrJly9S5AAIJh8OdEhV3upV0JFtQQkcMAEvhnY29Bl6XO21BYA64mV1KS8nhQtLyvQ6YgYBQEEAUBAAFAQABQFAQQBQEAAUBAAFAUBBAFAQABQEAAUBQEEAUBAAFLMAMNA49Feoh0fJv4AuDAeg297793RHu6EYI6ALBAABQAAQAAQAAUAAEAAEAAFAABCAAgTAUzNAOl4O8QI/a762pJ7U/eAmzscd5OUvraTqWwfTOJ7etBPbf9tJ9W0nAmAkAAd7hyTV4Od0n7c99JLVuXVycnxKxG3/wycy3jNDXvzUounezU97yPzYMnm3tUsuLi4u+/n4bp/Eo2ukxzai+XsE2iL8dSkZbgunvWZmJEZdU3vfjQCofTbcP0cpSqm1VPWqn+F/w0rGu2cISd8VD4IW6zLeO0Ndd3pyRmq/b1K9Znk6QV3z/MdmBEDxCzeMSLXDKfDo4Jgc7B+Ri/M/tLmx8kb1fpa7jfxn5Nqnjwfk/FxKxce3+6ThP96MAIAG1gUB0AEAyx0XORWafE5H4b5ZUnOvkXplvPPVMHH83qF6P1CKsB1y8Phe+MmzO67LftwV3fyyIGw76+9lD4ZQAwDG6XjkQwBYAQDnUNhCnVNZ3QucPKHZB6WCIyn3WTD7a4ub1H177cHMAEhjkRAAjQCEuqavHirORFfesmd1r8TSFjXhjWXqv++n5l4TOTs9p8andG8lAKCBhUEAGACYHJy//Ays0ZY7rozv43rSqfnJFHvqwuZvmcgYAPDwK762IQDZAuCtG6QmaqBpLOP79DlHqT4g7qDlOusDD3XdXCiuCYAPbz5Sfx/xTiIA2QIAwRnh2n346Zjb6vVldJ/IwBw12em8euGW8UKwM9hYfqMJgC5rgBwfnlz+HeIWQqcVAchwGxjwRCQeNiwN4klVkpWZJHV5JpHDvfefBFvFQ00AAKBDrWHq32ZH4wgASyBIbp09Oz0jUf/C5TZOSYQmGZ7MTMa4Ht+m7glhYy0AlH/VQHZ39q6YvbggtoftCABLKBj8AQj5itvRwQkZdI8r7tUhMpdq77d3MxrjYniVuhfkHrQAwI+3lvZfkrFtBIAFgD9ODbWTse5pOjiUMrPBmLwFEDyJR5wPwbJ9lNsKKgEAkozR1wPECAADAMKwrnibBm2iT3quHySQ0plxJYFQcLoxqgEACSxhDmP37R6/PCAAjACkpP25nxwfXXnc52fnkn23MJYArf7XNk19w5IC/aWLH6gBAAKWSdiGOQcRAdAJAP5XtLdMqEb5BhrHaDNcq6324OXPLZoSPOkAgN3KydHVkgXAipNSCAADAM9uO6n9esBLn+/bVN5FTTbE+TXFD/rp+AHk/bMBgN/KeiOqqedrBwCYV6EjB959tn1V3XJQk9nfGJJ8Zuv1DvUZSA6p9QkBKGHhCTiP1d85swYAliUIC18bANJ9IVcpHZ8HR00JlHT3gtBuOuWK77e99pZ3JOX6A2WJt3+wzdQao1CKVEJi6FoA8IJbOyFI8yb5jjebEAABz7fshpVXDkwmFGAIW9AXle2rzdLPKwvWcblJgnQxPJ2p9nbzA38fub7iU2uSRA0sDzC2FGww1u3EOzq2v7N3+RkWAEAgnFz0AIhz6anwrdCjFjZwkJQ8cyj+EDbwFSA6B/vz/V0aIuhfLc4PkwyAiBsEigBWuVpDqDiCbGImUUo1AOyPfLLlaEUDAFTVTAeWKKdMrYHSmiuV6/gWxlc09QPVPbAl1DI+ufiBXAPIoC4g05rAdMkqcWVSUfoAUG0D5n9zdUf2yYenfmp4kU+5pnMWex1BftskBxUkawC4TEu62+sG+SSR2IpAWDmxtMlvLbX4H9kAAAWj4khmUe8C4KmDiBhMDJhT+LJqa6qSwO/9g6UC9vnwTgB4/3rsSGCf7q7o0VxSLle3+OrfbZeiJdJYd99NXZPJfOCbQfhmEAKAABgNgGvwbzj5JgGA04XhAMRiS1/AGowKyK+ADkAXhgMA0lbTOYFKyK+0cjpg0SETAPODk583lrc7LXedh6gMYwXmHOYedMCiw/8BMYeyCo8LtWQAAAAASUVORK5CYII=;" vertex="1" parent="1">
          <mxGeometry x="104" y="-730" width="36" height="36" as="geometry" />
        </mxCell>
        <mxCell id="t24WGjuX6B1RanKLqHfm-119" value="Trade-Safe Message&lt;br&gt;Queue" style="rounded=0;whiteSpace=wrap;html=1;" vertex="1" parent="1">
          <mxGeometry x="160" y="-880" width="160" height="80" as="geometry" />
        </mxCell>
        <mxCell id="t24WGjuX6B1RanKLqHfm-105" value="" style="shape=image;verticalLabelPosition=bottom;labelBackgroundColor=default;verticalAlign=top;aspect=fixed;imageAspect=0;image=data:image/png,iVBORw0KGgoAAAANSUhEUgAAAIAAAACACAYAAADDPmHLAAAABHNCSVQICAgIfAhkiAAAAAlwSFlzAAADsQAAA7EB9YPtSQAAABl0RVh0U29mdHdhcmUAd3d3Lmlua3NjYXBlLm9yZ5vuPBoAAA8fSURBVHic7Z17kFTllcB/596eBzPDI6ACmojxuSYmLsKqRE1U0Kq4q1F0BhKEGV5DaQXG3SS1f+w/1Jap/ctawUfWkdF56KLjAyIWVGoRorsoQSCPdSMuxiViMkBQhGGYV/c9+8fXPbTdzUz37Xtvdw/3V0UV9XX3/c7c79zvO+c753wXQkJCQkJCQkJCQkJCQkJCzhak0AIEyT1tOiki3I1yJ/DXwBTMPTiM8hux2GRH2LD+B3K0sJIGx6hXgJu3a+S8P/I9FZYDs4HICD+JAm+I8vSRafz8l7dI1H8pC8eoVYDaZ3WKWNQrPAhc6PIyhxTaRHjypUXysZfyFQujTgFq2/VGUVYp3A2UeXRZB9gmwtrOhbyOiHp03YIzKhRgwXM6biDKfISVwFU+d7dfoGUQ1m2ol0997st3SloB5nXoNY6yAmUBUB1w930CmxyLR19eKG8H3LdnlJwCfHetVlRP4C5RGoE5hZYnzh6U5r5+ntu0Qk4VWphcKBkFmNeql8SE5QJLgHMLLc8Z+Byh04JHX1wk7xdamGwoagVYvVqt33+VW4FGhbmAXWiZssQBtqnQfPQrbChmV7IoFeCedj2vTFmssAL4aqHlyZM/K3Q4No+/er98UmhhUikqBaht1RlYNKIsBMYUWh6PGRD4OdDcuYg3isWVLLgC3NWiYytsvo/wIHB1oeUJiH0CrZEIzf++QI4VUpCCKUBth16hDosFGoEvFUqOAtONsN5RnnilXn5XCAECVYDaTi3XPr4Xd+FmB91/kbMHpblaaW9dLH1BdRrIAMxv0fOdCAsVfgh8OYg+SxblsAqtEYd/e2GxHPC7O/8UQFXq2pmNceHuYeQoXMgXGXIlpZJXX6qTmB+deK4AtU/peCqYBzQhfM3r65+l/EHgabuMFq9zFTxTgCQX7n6gyqvrhnyBfoHXgObOetnqxQXzUoCkffkm4AYvBArJEmUv8FSlxfMdi6TH7WVcKUBth16qDssElgGT3HYe4gHCceBFx2HtKw3yP7n/PEsS+/IKTcDf5vLbkMDYocKaib1sbF4hg9n8YMRBTEqtegCYlreIIUHQpdAeifHEC0vk4HBfPKMCzOvQq9XhnzxOrQoJlkGBjTF4+Ew7jRkVoLZNm4BHKJ3wa8jwRIG/f6leHk/9IE0Batv1RpQ3ASsIyUICw1GLm1LT19IHWflxxvaQUscS5R/SGjN8cVYAwoQUAuVbqU2ZFCDcxRu9pCXZZFKAPwQgSEghUD5KbUpTABVaAxEmJHAE2lLb0hRAKnkMeD0QiUKCQ9n0tQOM7AaaL6vUdbBMlR8BV/gtW4ivfCDCI50LWZcpEXXkreBWnYHQBMwn3BEsFWLAFoE1I2UgZx3QCWMCJUGXQnsu5ew5R/TCqGBRknMUMEFeg5eUF7AUOCefa4XkSJ55AKcv4wFFWrE7WtmD0pxvJlAC75NCT+cGFqJmf7RicgGVNZ0NssPLC/u2fg9lBwdzasdoxffTSAIx4Hw6t2e0Euh5RMGWhnlzctdopSAnkhXEhVu9Wq0Dl/fcXkXfw0cHJ87Qs9iTvMDuOnJSxvzEOjlhfa4unBcEfuf1v5acj+0sROSHwJe7Biaz7fhNbDv+bbpjNUGLUxCqpJdv2bv4bmQrX7H+BBYOleyizPqx3N7iqZE3EoEogOpqi50f34rQCJqxTnBQI+w+OZ3Nx+bwQe9lQYgVOBdbB5gTeZObIjupoD/zlyo4QqU+RdmBf5Zbfun70TK+KoDubhxPNDoP9CHgyqx+NAgfHb6Irf3f4T+j19NPhZ8i+k6ZRJlp/Zo5kTf5hv377H9oM0gFv6DSeUhmt/mWo+GLAujO+hlgNYKLOsHDwID57ykdw9uxa9kSncNB5wKvxfSVKXKE2ZG3uLXsLcZy0t1FyoCxRKmWDSjNMusZT+oBk/FMAXR7QyVV3AnyUKbcs6zoB45k/mifcxlbBuewK3YNsSLNVheUq+z3uSOylWvs3yK48OAEKAfGAZVpn+4FeYoxg8/L1R157wImussL3dlwGWItRTX/OsETwPHhv3JMx/NW9AZ+Eb2Fo1ocZYkT5Djfiezg9sh2znW7X2Nh9k1ryOYkhRPAC9jWY/I3Le+569DgSgGGjDq0CfEwIngSyPLIJEV4L3Ylm6O3sTf2TQrhSl5h7+eOyFautfdi4/L8hnLMoFfh8i7KDsRZg12+UWY25+xG5tSl7mqYQox6kAcRHzZyYkAX5DpzdjmT2Ra7iW3Rb9Ot/rqSY+jlhkiSC+cGweTn1oCHNu4hRNqwo0/KzPasN5KyUgBj1NlNoP5nBfUBR8lZCSDuSjrT2Rydwwcxb13JrFy4kbAxg16Nn0V3MZQtIGu4/pk3ZARD5IwKoL9dWM2pyFKEB4C/8lzM4XCAbsyS4Li7xEfORWyN5udKunbhUikHxmKe+mBXqn0oP6Mq2nImozGjOPpOw82IdFAMJ3r1YBRhwO3Pq9kZncmu2HT2OZfTq+mmdTJlDHKF9SGzIu8yy36XGrchd8Gs62MphvDXJ1jWArm25a3UD9IUQHfUX4Jt7cU4IsXDAEYZenC1PAA4WBx0zqdLp/AXnUSfVhJTmzHSy0Q5xlTrMNPkIGX5nO0czDTvhuOIPV2uW/d/yY3pDodt/yNocQ0+mGk04R+fwiwRORreFg7TrE+Yhg9nNiem+eItrBsPsZ9gIrFDZPA49baABHKHjbnRNUAvRhFcLg95I5z23Qs/zWfD7akNmbYcJgcgSP4k1tgqPFkeciLC6Wm+lArplSmpTZlmgEMgpXVGf/LykDAavT5X0x/fPWj+nNqQQX/l1SAk8QUbowRTgYmYvfR83a4yYEL8mpMo5cEHdGNqS/oMUKEP0y/3ABcHIZIvJNbmaszpOL2YQFMfIy8REcxsUoF54ovLks+HD4mU/zS1MfM+wO7Gc4gOPgJ8n1Ixb7IlhlGKGEYZFDPoFmawR8+AJxgE1hMp+5HMbE47Z3jYCXJo718krAcsObQLsdpHig1kFwvwK/oX4gO5RQdzHkh9e+ml2LoM1bAesHg4DryI5ayVa9tyqhN0/STr5pUVTOq+C5WwHrBgyB6gOZ8MIU+m8qQcwLAe0G+EflReQ2NrZFZb3inknq7lunPBOKiYj+pKJKwH9Jj9qLZgOevkunbP6gR9M+Z055IbgVWgYT2gexxgG6prub719ZGSO9zguzUfupJuyM6F84LA3LnQlcyG/BI8XfUYRCepDLmSji5HmFgIGYoG1R5EnnfjwnlB4MFMXb3aoksv4mMu5hPG8Sm4zbEsaXoEPrLg3Ug1u637+I21VNeuDDzUFNwSsKFhAoPUI7KKTIGmcowDWUVpxdhzQYHPBLoEujPceltjVMp2yqIrZXHrviBE8t8I7KyfgWVl/z5BB8CCc51iTq/KjT4xNY9HLBOIGgkByvWPjOFfZXHLGj9F86c49NmGSmqsunhV8PTsf4i5SYNxscYqTFWYqKVnMipwIv60H3MpvK0wQQ9S6TwCVS1S96TLKtMz4+1G0MsNl6HWUtDl4MK46xX4NMP8Xw6c48AUoCKInK88GACOWnAIc7aXGyoUahTGfOFvPYHwAo4+LnWt/52/oIb8i0M7a22s6jtwZBWS5yvhPxc4OYwBIMC4+KzwpSJThO740/6ZuMtLFKBKYayTRXGo7AHW8llkvazIz110HwzqbJiCxOsEvTrw6bhAd5YWYKWa9NXzsrlhPhEDjgocskyquhsi8ae9St0Yv4dA2tDok1LnbsMo93Bw55IbEZ+2eAeAIzmm5AjGRpiqxmYIgh6Bw2IG323yaWV84Cs9kdlB2Yala7k3ty3j7BJCnlswjvKK+RBAkOeEZYwnN1QrTFY4R71P7Uq4cIfFzFRuEI2nk/s6a+0HbcF21snckYNGw6eEvbL4GpQVgR/7OoBZCvpcrqcRYJLClPjUmg99mEH/i2Wy69xQjhn0qkC9mT6QTaCPSu2zb5/pS5mTQjsXXYjYTwB/55t42RATOClmynVZJcz4+IwwUbN/6mIY1+1IHk87GCu+RovBc3kdy35A7l2XVhOXXhy6oWECUdlJMb0qRjGzwUlx71olrOwazMCUc1ohYpinu5f8Fc7CPO01GD++WBDexymbJXXNXziEJ/2ZiFoPgRbP4EO8KifuFw/Gt1FP5agIihnYnsQFPaYsyZovxk0r5UpkcCXwcHJzBsdD7wtIJHeUKUx0YGoMxjmFjRskFPO8GEx2jBFajIM/hNamtmRaFUujIsjGbAqNjZnlodsKrkrYAmoc88SXVOBKLkltyaQAJ8jwitGiZWh5iMFA3E7IdXnIlsxbtKXE56kNmfT3PwIQxB/KE8uDYzaFvDDCbDVLzVTHRChLd/BBNG1s02cA0Z+icjfGji1NbDXu33jM8pD4l00o1sLYGRVApWO8hdFBN1HnX1Ibz7APsGQWFq2oXu6/XAHiANG4IsSS/nQ7vpZHctgrKCVE/heHBql75p3UjzKaMFL3zDu8d+GVWHIb5j3CJTzvJWFhlolE1C3xryq+Jz/aBl9lB2gdn0auyjT4kG0soHPppYgug7AesAQ4jvAiOGvlvpGTTHM7Knbzygp64vWAEtYDFheyB6WZMZHn5M7mrIPT7vMBChUoCknGBHys2Bq5112dYP4ZQUGGikMS5BTyHQ5vcwI762dg2U1oAIdKn33EgC1Ysoa5Ix8CnS3+ZAWfThcL6wHzRrvAas8n7Ws4/H1p1OrVFt/4+FYcDV81nysarxP8rHxjvomfwxFcZVDoSmZDTi6cFwT/4sjQlcxA3IXrG3xeFnnzMqisew6ys1SSysbORleyH+S1fFw4LyiKNVk7G8dDdN5Z4kp65sJ5QVEoQDK+1h0UDtd5+35TdAqQwJfKo+DJu3LHb4pWARKUpCsZkAvnBcV/M5NIqj7O/y2l3mNcOMt6TObm9zbPICkpBUhw2pW0mhC9obDSFM6F84KSVIBkCuRKxl04muVe79/oHSQlrwAJhlxJ0VXA133q5kPQdQyWt8gP0s/eL0VGjQIk47ErWbQunBeMSgVIoJ2LLkAiyxG9HyWtKGJYhAOotKHRp6Wu3eVbooufUa0AyejLi74J9s3AdSiXY/YWxmJSQbuBPwH7gV9h6Xbmtu4ebU97SEhISEhISEhISEhISEjI2c3/Azv4Z1i03XikAAAAAElFTkSuQmCC;" vertex="1" parent="1">
          <mxGeometry x="140" y="-900" width="40" height="40" as="geometry" />
        </mxCell>
        <mxCell id="t24WGjuX6B1RanKLqHfm-131" value="" style="group" vertex="1" connectable="0" parent="1">
          <mxGeometry x="260" y="-428.5" width="60" height="57" as="geometry" />
        </mxCell>
        <mxCell id="t24WGjuX6B1RanKLqHfm-91" value="&lt;font size=&quot;1&quot; style=&quot;&quot;&gt;&lt;b style=&quot;font-size: 17px;&quot;&gt;Admin&lt;/b&gt;&lt;/font&gt;" style="text;html=1;align=center;verticalAlign=middle;whiteSpace=wrap;rounded=0;" vertex="1" parent="t24WGjuX6B1RanKLqHfm-131">
          <mxGeometry y="40" width="60" height="17" as="geometry" />
        </mxCell>
        <mxCell id="t24WGjuX6B1RanKLqHfm-129" value="" style="shape=image;verticalLabelPosition=bottom;labelBackgroundColor=default;verticalAlign=top;aspect=fixed;imageAspect=0;image=data:image/png,iVBORw0KGgoAAAANSUhEUgAAAIAAAACACAYAAADDPmHLAAAACXBIWXMAAAOwAAADsAEnxA+tAAAAGXRFWHRTb2Z0d2FyZQB3d3cuaW5rc2NhcGUub3Jnm+48GgAABuBJREFUeJztndtvVVUQh7+WUkCsUKkQCILhVryhROKLRgreJUZjFB+MYCSamGg0arxEUYz+G5KYCqIkAvHFaETUGJ5UQAhYgTTKRYVS5CKlLUcfplVyYss5e83es87e8yW/lyZ7dfb8Jvt21poFjuM4juM4juMUizrrADKmHpgGtADjgbEDfz8NHAeOAr8AJZPoDMh7AUwHFgGLgXlAKzD6AsecATqA7cBm4EukKJwaYQrwIrAD+FtJ24EXgMkZnodTJdcB64B+9IwvVz+wFrg2o3NyKmAmsBG5b6dlfLlKwMfAjAzOzxmC0cCbyD07K+PL9RewEhiV8rk6ZcwGfsDO+HJ9D8xK9Yydf3kIOIG96eX6E3ggxfN2gGeAc9ibPZRKyBuIkwLvYG9wpXo7pRwUllexN7VavZRKJgrI42T7iqelErA8hXwUigXAWezNTKoe4Ab1rBSE8cA+7E0M1V5gnHJuCsF72JunpdXKuck9N1Ob9/2hVAIWqmYoxzQAO7E3TVvbgBGKecotj2BvVlpaqpinXFIH/Ii9UWlpJzIryRmCJdiblLbuVsuWArFV42PWAWTAMusAziemOYHNwGHy/9t6DzK17Lh1IBDXFeBe8m8+yESWJdZBDBJTAdxqHUCGLLIOIEY6sX9Ay0qdKhlTIJZngCnAQesgMmYy8Jt1ELHcAuZaB2BAq3UAEE8BRJGMjIninGMpgGnWARgw3ToAiKcAmqwDMCCKc46lAC62DsAAL4DzKMIHoHIutEo5E2IpgNPWARhwyjoAiKcAokhGxpy0DgDiKYBu6wAMiOKcYymAfdYBGLDXOgCIpwD2WAdgQBTnHMtvAU3IJbEokyb7kfkP5s8+sVwBTiLr/YvCd0RgPsRTACDduIrCF9YBDBJTAXxmHUCGfG4dQIzUA79iP1kjbR0gomedmK4AJeAD6yAyoB3pcuL8D63E3QImVP1IgytnGNZjb1RaWquYp9wyn3ytDB5UCe8wWjHt2BumrXdVM5RzJiFfBq1N09IxYKJqhgrAk9gbp6UVyrkpDGuwNy9UH6pnpUCMA37G3sSk6gAuUc9KwZiJrKCxNrNa/UEkc//zwALibBA9lE7g/QHVuRE4gr25F9Ix4KaUclB4rkQ2cLI2eSgdxD/2pM5E4FPszS7XZnxTqcwYgWwX04u98b3A68T1y2phmINMrrAy/yvgmtTP0hmWOuBhsu0vuAPZuiaWSbUOYsb9yNzCNOYUnEPu8/fhxkfPNGSXkW+BPpKb3jcwxivA5ZmeQUYUoZKbgFuQnUVbkXY0g5tHDy5LP4X07TsC/DSgbcDXRDJ923EcR5+83QJagAnIpb0ZGAs0Bo7Zi/Qv6EZuB13A0cAxo6FWC6AeuB5oQ97D5yL390sz+v9dyE+9e5AW8FuQZ4ZSRv+/kDQjs4Q2ID+4WH8BLFcXsqP4E8gDpqNAA9JEej3SZdva5Ep1BvhoIPYG9awUgEakr34H9maGqhN4FhijmaC80gg8DxzC3jhtHQSeI/yhNLe0AbuwNyptdQB36KQsH0xCFoVaG5O11uBrBWhDLo3WZljpd+D20CTWInXAy8hqWWsTrNUPrCKingFpcxHwCfaJj00bKcCbwnjgG+yTHau2Ip+yc8kU8r0rqJZ2kMPJpeOQb+XWya0V7UQ+feeCMfhlP4m2Is9LNc0I/IEvRBuo8enmq7BPYq3rtWqTHgtt+Hu+hs4Bi6tLvT2TkI2grZOXFx0ALqvKAWPWYZ+0vKm9KgcMuQ37ZOVV0d8KGoHd2Ccqr9oFjKzYjQrQfsV4mmLuA5wVVwFPaQ6oOSt4FLAf+eTrpMcBYBZwVmMwzSvACtz8LJgKLNcaTOsK0IC0c7tCaTxnePYj6yD6QwfSugLcg5ufJTOAOzUG0iqAZUrjOJXzqMYgGreAZuSrXxE3gLakB5k3cDxkEI0rwFLcfAtGAw+GDqJRAHcpjOEkI/g5IPQWUI8slc7N7JUaowtZW5B4VXLoFWA+br4lE4B5IQOEFsDCwOOdcNpCDg4tAO+La09Qo8rQAvB++PYEeRBaAHMCj3fCCSqAkLeAFqSvnmPPBKRtTtWEXAFaAo51dEnsRUgBNAUc6+iS2AsvgHzgBVBwEm9NF1IAKlOSHBUSexFSAIcDjnV0OZT0wJDXwJFIjxv/LcCWY8hKrETTw0KuAH3ApoDjHR02ETA3MPTn4BnIQhBvfmhDH3A1MiE3EaGdqboHxmgLHMdJxltIDwFT6oD3sV82VTS1E1G7/zrgDeLYyDHv6gVWEpH55zMbWE2c/fxrXV0DuZ1VsRsVkFYVNSAbPU/lv525nGScQtYD7kZhJZDjOI7jOI7jOEXnH/3JYln3LIrBAAAAAElFTkSuQmCC;" vertex="1" parent="t24WGjuX6B1RanKLqHfm-131">
          <mxGeometry x="10" width="38" height="38" as="geometry" />
        </mxCell>
        <mxCell id="t24WGjuX6B1RanKLqHfm-137" value="" style="group" vertex="1" connectable="0" parent="1">
          <mxGeometry x="280" y="-1160" width="140" height="87.5" as="geometry" />
        </mxCell>
        <mxCell id="t24WGjuX6B1RanKLqHfm-135" value="&lt;font style=&quot;font-size: 17px;&quot;&gt;&lt;b&gt;Sensor Node&lt;/b&gt;&lt;/font&gt;" style="text;html=1;align=center;verticalAlign=middle;whiteSpace=wrap;rounded=0;" vertex="1" parent="t24WGjuX6B1RanKLqHfm-137">
          <mxGeometry y="57.5" width="140" height="30" as="geometry" />
        </mxCell>
        <mxCell id="t24WGjuX6B1RanKLqHfm-136" value="" style="shape=image;verticalLabelPosition=bottom;labelBackgroundColor=default;verticalAlign=top;aspect=fixed;imageAspect=0;image=data:image/png,iVBORw0KGgoAAAANSUhEUgAAAIAAAACACAYAAADDPmHLAAAABHNCSVQICAgIfAhkiAAAAAlwSFlzAAADsQAAA7EB9YPtSQAAABl0RVh0U29mdHdhcmUAd3d3Lmlua3NjYXBlLm9yZ5vuPBoAAA4sSURBVHic7Z1/cFzVdce/5763q13JsmUHIUEkXLBs2TH+AYlNGoSRLRsYm9SMqezWZdpMUmibNCbTSSl4cLBJLRKm04npNCnFpekfpsECCgWGQGT5R0Qmdox/YCm2ZNklsgAb+ZesX6t9P07/EDKxdt/ufYve0xPvfv7S7L17zlm97759991zziMEBGYQjtc8wIy/B3AdgKMEfpgqG99wZaeleoKtizoCrQWQD9BO0swHqWJXuys7O2dXWMBTYKoG0MfAc7oh1tOd7/a5sWM2zllOzD9gwkwAHQR6Uiw+8gwR2I0dr6CxDmAYq7VmEwHfG/EyE/MamtlYL2ODuVbjtvN7AHxlxFA36TSXpjV0SNnZMWuqRdphAJNGDDVpZ2dV0+p6S8aOufPGNWD8LDVObIrUNG+UseE1YqwDAABuv6OcgPVphoiJnmKu1aQMtZ2/D6kHHwAm2RbXycZjkf4EUg8+AFRZnzu6VsYG76zWwdiSbowI63nHvM/LxuMlgRAATPtmALrDaCmOX5gqY8YGFjqNEePL8gHxLY5DRM5jVwRzdiqAEofRiEXmF+Xj8Y5gCADIyzhKHJO0E83Zh6wdZjk7WeeR7GfylKAIQDFGKAGEHCWAkKMEEHKUAEKOEkDIcX0nsLKpqVCLxR6zgaUCKByNIFZGDhRsjj3vtGbGvf3f6Wy1rklms/NE7GfFX40cTBvTWbvQrO57NOVOoNHSVT7ytV3X/qNeonWn/d+80LvQ3nChNuudwIrIGXq19J+c7m3g787dZ73RP8/OZkcGFmyKaKRZ062VR++960M373UMMB2VTU2FIhbbz8AMAkbtZnaCM4dhsCiT8TWIiOOYCaEzcMPI1zlppszlDM7YZsFJM+uZkzmzRti0NU6acnc4sxOxE9YCO6q9N+vFn/+BGxG4+gnQYrHHAMxwHZ7CH5JW1LTEy27e4koADNS4i0jhNzxozXEz3+1FYL7L+QqfIWZXPytqFRBylABCjhJAyFECCDlKACFHCSDkKAGEHCWAkKMEEHKUAEJOIATQnzGZF+iDXALtQAY7/S6SgvttZzt9nDnWyzayzOuz3SQpe0cgBHDQmooejqcda7NLcdpOV6ORSpNR6Ti225wpHc+eAecNzz19cnY+MIvQnkyf4nDJjuFg4jrpeLwkEALo4Ti+P3gPrBHh9HEeNiRqpe00WTPworEg5fUTdgl+klwqbedfzi9Du3F1yuvbLy3ErwYqpO2s71qVcjaxWGDT2XvQYweiLMBdRtCs/ftb4WE+wI1aJ74W3YNSuoiT9tV4enAJ3ucpru38UeQAluuHkE9J/NqqwLPJ25Hg9MkixsH0uRNxMvCNot34w/wT6LOjeK13Pv635ybXsZRFLuCvixoxLdqFD4wi/LS7CkcGy1zbkYXytOTxP18u/fsSKAGMBU4CGK+4FUAgfgIUY4cSQMi5nI3J7XeUD1XpOq+BHkm8U5jIkHiZiQFEcci8DpdUUlFGJmkDmJ/XgThlTYJOi4gIcXTHHOcrZ0JS0/gA3d58CgCIGWQfr9lEjEfgMkvYLcNX+68b871044ogXQPcPeEwHit+GYUi4bUrk8F1+uKWjcRtNX/FjH/z2uMwFgTW9n8LzZZ3V8JuCIoA5sY68N/XPg2NRqVUQA7mBwQzHvLPI6DBxteie/x0OS74elGTvwcfAIj+QQDw/atYQhf9dhl4SrRLY+G2TAA45rfXk7ZjFVhoOWkU++6TgKM6Eb7LjDfhU8ewAUSxNVktPZ97Exh4+yiMznOAKdWcyxVG26lRtwkhICZNQP6t86EVyZVP/vhCDe4qOIICMTj68aSHmWk9AQAfW1LLRE8BKPXSY5tdig2JWukLQO5N4NJze8ADuS2JZDDe+8Az29A0FK64TVoEc/JOYXPxS5iRd9q7mIb4EMTr9MUtL1z+1jPXajjWVQ5Nd7w5tKLvuw0mi+tz8ZiEhjOSu3rD9L95EMlj7+fiThpPBQBAv6oIE5bf5uo9pXo3IsjtbEdRYewoedJ5y1LTbHRNPzXc6/Dyup+o3gLwXibjs/b/wMgpqhwxO8/56c4TrO5e1+85bbr7ovw+pGlMS4+czDzr0OW/An0rmC2fl0UewHYgOsI6EmgBKLxHCSDkKAGEHCWAkKMEEHKUAEKOEkDI0YGP7wK2nb/PBhYAzik/r5rPlzhl12YjgSjeNmagyfpM5ZSOOlX5bVgUb0OeyO2eGwnoqxtnP+08QxiAvU87+4VttLreIm6pnsC69ibSP2lj1HnRWIDvJf5Yam73v7/l6T4A4P2tYGgaiv5sudTUzVe/iHsL93sbzye8rRniTmHrog4+HXwAuDfyG3xVP+CXu3HDPYUH/Dz4AHCrqdubxcdP1/KVu6OHsk8KGXdPOOy7TyKsFRiD3n8x+LqnNC6IC29/6hwoEADt9NvrXmua3y4Dz96BlDbG3sNoFKSZDwLo9svnCbsEzyZv98vduOGZC9VpC1I95KIGfEenil3tfGLpXNviOgIWguHYavS0XVRuQOS0Dkwigj1mJX6SXOpYqBlmBjiCNZ3fxN9ObsCi/DZERWoXcxmIwGXa+f9zGmeGRYR9msXraVlLR6CLQ8O2DBwNVHGowhVKACFHCSDkKAGEHCWAkKMEEHKUAEKOEkDIUQIIOUMZQb9dMtXWxBMELADYURSn7SfKjRw1Y0DDL81K/GvyDvRxMNqkBo0CMYhvT/kFFsXbEBE51gYSImWNN57IMMUGeJ9m4RFa1tKhc3t1BVu0n8BZC9JKxadr7HBDtAtV+nGs7v+22g8YQZyS2P75H2Na9KNPa4qQ5gmpI6ZUWBpW8M7ZXxJsaU8ByL0a0SXTxBl8PbrbL3fjhvsn7x6Ng++GSRbTjwSAaj+9AsAtWqYzVDi5JZ6loNcbFgsA/X57HVCn/xQGMrSo95A+wYxtfnt9zXDfdPmzzqs9/vdOZKJtQgxq6wE0+eW03liI10wlgJG80nsT6i+ltrr3kCY9SY/qNO+tPubaarSdW2tDLAScH3XxqnnzmgRHcrpgHOAImqyZ+JU5PfeQP+Ns6FqFN3rnYlHBMcQp58IQe/WEvVudJyAJ0F5td/NztBG2yghSGUGKMKMEEHKUAEKOEkDIUQIIOUoAIUcJIOQEWgCkBTo8KUj40oQ9Zz55aBTXamjtvg7C+ebQir6zEdM5XyQjBjTpR8BeDq7sc543i/YabdIE1++5Vr8IDbm1ySVNUFvDHOd8gAgxzlR2DDeLHmoX31qzhoEtADx9kkO7VYJHB2txxCqXmh+2dvFzYx2oK34JFdEz3sU0xBkA6/QlzduJjy+5g236OXx8YMSqvgfRYV8lNX/4gRFm5znwuHlgBEErKkT81pukzwBlkQt4pWyLnw+MAEAryG6teRfAHB+9umoU5TVBeWpY3dUvYFXhO776JOCwAOD8zHWPuF74mvo0Lrg+ctZ3nwzMFAA6/XZ82i7y22XgOW1OHAu3pwQR/dBPjxYE/stY5KfLccGzF2+DleMKK2eYnxSY3vAMgzYB3rfu6uE4Hk78SWCeGhokjgyW46GPVuOSHfPDnUGEjdqSlq2fPDTqeHUZLLoZIMdkgkcSa7YkELkmF4/9yMMhayp62JcPKE1QLgKHmSgSmB/rQD7lthoQEWH+85Rtzr0fyR7UWH+Hag6/D7hc+vmdEeQHQRPAp0VlBClcoQQQcvTsU/xjrtaBv4j+EqXUjZN2MZ5OLkWnPdm1nZWRA1geOYg4DOyzbsDW5GLXtYhxMnD/5F24JXYS/ZyH13rm4ZVe9+ns5fp5/M2URtwQ7cIHRhH+82IVjgzK3Qr3g8BcA9wdOYS62PNXbIL0cR6+MXC/9N4BAHw/Vo9VkSu7bp+wS/Cn/d9KW5Wc7hqgQAymLdSsv7QAG7pWSccyN9aBn17zH8j/vT7AFgs89NFqvN47T9qOG8blNcBE9OPRvP9J2QEroEE8HntB2k6V1pZy8IGhgtRvRn8hbWfdlIa0hZq1E3+Dr8Tbpe3UFb90xcEHAI1sPFb8MiaKhLQdLwmEAObrHSik9P+QGeI0SoVcK+OqSKvj2CLdeWwkt8Wd595eIGfnWv2i467e8FIvCARCAPnIvN1bALlvSzyDnXzIr6tHfmuvGJNcn+dTls/k666fM4EQgGLsUAIIOUoAIUcJIOQoAYQcJYCQowQQcpQAQo4SQMhRAgg5bgXge09BhTuYyFX1jCsBMNDgLhyF31BMf9fNfHcCSCQeByC/rabwl6iWzJtcuNLNW1xlBLVWVfVUNjUtEHl5G0C0jIBRqWaIkVmADIWpEbI7CVm2DAHkwSgGkLYSU4dtEpCyB0tRPSXbhAg6HJJlSJBNUT3raZYiGiHD/5d0YVFUz60EeAQs2KRY5N28yYUrm5d+2VVlaSCK1/nY0tVM/LzTOAnMpuk7fpvNjtVa8wwBf+kw3Ckqd0ilFpmNN54CkL54gbFVr2m+P5sNbpj9BUtQS4Ypa/Qlzdtl4vEStQoIOUoAIUcJIOQoAYQcJYCQowQQcoIigMwpsuyQM55KpnsFbtJwneeSZFpw1nkciMKAYAhAFwcAmA6jH2L65N/JmBGgvU5jTPi1fEC0z3mI5eyIq36HoW5c6TA01v1tCORAIARAFW+dYqAuzRATYx1RvdwGx4zJ2wB+O83IRaHRetl4NMt+GEC6apQmbXfzczI2aPEuE8A6AJwyRtg8XJ8/1gRCAAAgZuzYSKAHAGrH0Kn8EDGW08wd0rVhRPUWJfQ7mbAF4C4w+gG8ToK/RNMapEtxaFlLh8b4IoDXMbQD2sVEP9IMcRdtlO/gqC9p3g6mFQQc/vgztYP5AVHd/LisDa/5f+SUvAfyJmpcAAAAAElFTkSuQmCC;" vertex="1" parent="t24WGjuX6B1RanKLqHfm-137">
          <mxGeometry x="41.25" width="57.5" height="57.5" as="geometry" />
        </mxCell>
        <mxCell id="t24WGjuX6B1RanKLqHfm-138" value="" style="group" vertex="1" connectable="0" parent="1">
          <mxGeometry x="450" y="-1160" width="140" height="87.5" as="geometry" />
        </mxCell>
        <mxCell id="t24WGjuX6B1RanKLqHfm-139" value="&lt;font style=&quot;font-size: 17px;&quot;&gt;&lt;b&gt;Sensor Node&lt;/b&gt;&lt;/font&gt;" style="text;html=1;align=center;verticalAlign=middle;whiteSpace=wrap;rounded=0;" vertex="1" parent="t24WGjuX6B1RanKLqHfm-138">
          <mxGeometry y="57.5" width="140" height="30" as="geometry" />
        </mxCell>
        <mxCell id="t24WGjuX6B1RanKLqHfm-140" value="" style="shape=image;verticalLabelPosition=bottom;labelBackgroundColor=default;verticalAlign=top;aspect=fixed;imageAspect=0;image=data:image/png,iVBORw0KGgoAAAANSUhEUgAAAIAAAACACAYAAADDPmHLAAAABHNCSVQICAgIfAhkiAAAAAlwSFlzAAADsQAAA7EB9YPtSQAAABl0RVh0U29mdHdhcmUAd3d3Lmlua3NjYXBlLm9yZ5vuPBoAAA4sSURBVHic7Z1/cFzVdce/5763q13JsmUHIUEkXLBs2TH+AYlNGoSRLRsYm9SMqezWZdpMUmibNCbTSSl4cLBJLRKm04npNCnFpekfpsECCgWGQGT5R0Qmdox/YCm2ZNklsgAb+ZesX6t9P07/EDKxdt/ufYve0xPvfv7S7L17zlm97759991zziMEBGYQjtc8wIy/B3AdgKMEfpgqG99wZaeleoKtizoCrQWQD9BO0swHqWJXuys7O2dXWMBTYKoG0MfAc7oh1tOd7/a5sWM2zllOzD9gwkwAHQR6Uiw+8gwR2I0dr6CxDmAYq7VmEwHfG/EyE/MamtlYL2ODuVbjtvN7AHxlxFA36TSXpjV0SNnZMWuqRdphAJNGDDVpZ2dV0+p6S8aOufPGNWD8LDVObIrUNG+UseE1YqwDAABuv6OcgPVphoiJnmKu1aQMtZ2/D6kHHwAm2RbXycZjkf4EUg8+AFRZnzu6VsYG76zWwdiSbowI63nHvM/LxuMlgRAATPtmALrDaCmOX5gqY8YGFjqNEePL8gHxLY5DRM5jVwRzdiqAEofRiEXmF+Xj8Y5gCADIyzhKHJO0E83Zh6wdZjk7WeeR7GfylKAIQDFGKAGEHCWAkKMEEHKUAEKOEkDIcX0nsLKpqVCLxR6zgaUCKByNIFZGDhRsjj3vtGbGvf3f6Wy1rklms/NE7GfFX40cTBvTWbvQrO57NOVOoNHSVT7ytV3X/qNeonWn/d+80LvQ3nChNuudwIrIGXq19J+c7m3g787dZ73RP8/OZkcGFmyKaKRZ062VR++960M373UMMB2VTU2FIhbbz8AMAkbtZnaCM4dhsCiT8TWIiOOYCaEzcMPI1zlppszlDM7YZsFJM+uZkzmzRti0NU6acnc4sxOxE9YCO6q9N+vFn/+BGxG4+gnQYrHHAMxwHZ7CH5JW1LTEy27e4koADNS4i0jhNzxozXEz3+1FYL7L+QqfIWZXPytqFRBylABCjhJAyFECCDlKACFHCSDkKAGEHCWAkKMEEHKUAEJOIATQnzGZF+iDXALtQAY7/S6SgvttZzt9nDnWyzayzOuz3SQpe0cgBHDQmooejqcda7NLcdpOV6ORSpNR6Ti225wpHc+eAecNzz19cnY+MIvQnkyf4nDJjuFg4jrpeLwkEALo4Ti+P3gPrBHh9HEeNiRqpe00WTPworEg5fUTdgl+klwqbedfzi9Du3F1yuvbLy3ErwYqpO2s71qVcjaxWGDT2XvQYweiLMBdRtCs/ftb4WE+wI1aJ74W3YNSuoiT9tV4enAJ3ucpru38UeQAluuHkE9J/NqqwLPJ25Hg9MkixsH0uRNxMvCNot34w/wT6LOjeK13Pv635ybXsZRFLuCvixoxLdqFD4wi/LS7CkcGy1zbkYXytOTxP18u/fsSKAGMBU4CGK+4FUAgfgIUY4cSQMi5nI3J7XeUD1XpOq+BHkm8U5jIkHiZiQFEcci8DpdUUlFGJmkDmJ/XgThlTYJOi4gIcXTHHOcrZ0JS0/gA3d58CgCIGWQfr9lEjEfgMkvYLcNX+68b871044ogXQPcPeEwHit+GYUi4bUrk8F1+uKWjcRtNX/FjH/z2uMwFgTW9n8LzZZ3V8JuCIoA5sY68N/XPg2NRqVUQA7mBwQzHvLPI6DBxteie/x0OS74elGTvwcfAIj+QQDw/atYQhf9dhl4SrRLY+G2TAA45rfXk7ZjFVhoOWkU++6TgKM6Eb7LjDfhU8ewAUSxNVktPZ97Exh4+yiMznOAKdWcyxVG26lRtwkhICZNQP6t86EVyZVP/vhCDe4qOIICMTj68aSHmWk9AQAfW1LLRE8BKPXSY5tdig2JWukLQO5N4NJze8ADuS2JZDDe+8Az29A0FK64TVoEc/JOYXPxS5iRd9q7mIb4EMTr9MUtL1z+1jPXajjWVQ5Nd7w5tKLvuw0mi+tz8ZiEhjOSu3rD9L95EMlj7+fiThpPBQBAv6oIE5bf5uo9pXo3IsjtbEdRYewoedJ5y1LTbHRNPzXc6/Dyup+o3gLwXibjs/b/wMgpqhwxO8/56c4TrO5e1+85bbr7ovw+pGlMS4+czDzr0OW/An0rmC2fl0UewHYgOsI6EmgBKLxHCSDkKAGEHCWAkKMEEHKUAEKOEkDI0YGP7wK2nb/PBhYAzik/r5rPlzhl12YjgSjeNmagyfpM5ZSOOlX5bVgUb0OeyO2eGwnoqxtnP+08QxiAvU87+4VttLreIm6pnsC69ibSP2lj1HnRWIDvJf5Yam73v7/l6T4A4P2tYGgaiv5sudTUzVe/iHsL93sbzye8rRniTmHrog4+HXwAuDfyG3xVP+CXu3HDPYUH/Dz4AHCrqdubxcdP1/KVu6OHsk8KGXdPOOy7TyKsFRiD3n8x+LqnNC6IC29/6hwoEADt9NvrXmua3y4Dz96BlDbG3sNoFKSZDwLo9svnCbsEzyZv98vduOGZC9VpC1I95KIGfEenil3tfGLpXNviOgIWguHYavS0XVRuQOS0Dkwigj1mJX6SXOpYqBlmBjiCNZ3fxN9ObsCi/DZERWoXcxmIwGXa+f9zGmeGRYR9msXraVlLR6CLQ8O2DBwNVHGowhVKACFHCSDkKAGEHCWAkKMEEHKUAEKOEkDIUQIIOUMZQb9dMtXWxBMELADYURSn7SfKjRw1Y0DDL81K/GvyDvRxMNqkBo0CMYhvT/kFFsXbEBE51gYSImWNN57IMMUGeJ9m4RFa1tKhc3t1BVu0n8BZC9JKxadr7HBDtAtV+nGs7v+22g8YQZyS2P75H2Na9KNPa4qQ5gmpI6ZUWBpW8M7ZXxJsaU8ByL0a0SXTxBl8PbrbL3fjhvsn7x6Ng++GSRbTjwSAaj+9AsAtWqYzVDi5JZ6loNcbFgsA/X57HVCn/xQGMrSo95A+wYxtfnt9zXDfdPmzzqs9/vdOZKJtQgxq6wE0+eW03liI10wlgJG80nsT6i+ltrr3kCY9SY/qNO+tPubaarSdW2tDLAScH3XxqnnzmgRHcrpgHOAImqyZ+JU5PfeQP+Ns6FqFN3rnYlHBMcQp58IQe/WEvVudJyAJ0F5td/NztBG2yghSGUGKMKMEEHKUAEKOEkDIUQIIOUoAIUcJIOQEWgCkBTo8KUj40oQ9Zz55aBTXamjtvg7C+ebQir6zEdM5XyQjBjTpR8BeDq7sc543i/YabdIE1++5Vr8IDbm1ySVNUFvDHOd8gAgxzlR2DDeLHmoX31qzhoEtADx9kkO7VYJHB2txxCqXmh+2dvFzYx2oK34JFdEz3sU0xBkA6/QlzduJjy+5g236OXx8YMSqvgfRYV8lNX/4gRFm5znwuHlgBEErKkT81pukzwBlkQt4pWyLnw+MAEAryG6teRfAHB+9umoU5TVBeWpY3dUvYFXhO776JOCwAOD8zHWPuF74mvo0Lrg+ctZ3nwzMFAA6/XZ82i7y22XgOW1OHAu3pwQR/dBPjxYE/stY5KfLccGzF2+DleMKK2eYnxSY3vAMgzYB3rfu6uE4Hk78SWCeGhokjgyW46GPVuOSHfPDnUGEjdqSlq2fPDTqeHUZLLoZIMdkgkcSa7YkELkmF4/9yMMhayp62JcPKE1QLgKHmSgSmB/rQD7lthoQEWH+85Rtzr0fyR7UWH+Hag6/D7hc+vmdEeQHQRPAp0VlBClcoQQQcvTsU/xjrtaBv4j+EqXUjZN2MZ5OLkWnPdm1nZWRA1geOYg4DOyzbsDW5GLXtYhxMnD/5F24JXYS/ZyH13rm4ZVe9+ns5fp5/M2URtwQ7cIHRhH+82IVjgzK3Qr3g8BcA9wdOYS62PNXbIL0cR6+MXC/9N4BAHw/Vo9VkSu7bp+wS/Cn/d9KW5Wc7hqgQAymLdSsv7QAG7pWSccyN9aBn17zH8j/vT7AFgs89NFqvN47T9qOG8blNcBE9OPRvP9J2QEroEE8HntB2k6V1pZy8IGhgtRvRn8hbWfdlIa0hZq1E3+Dr8Tbpe3UFb90xcEHAI1sPFb8MiaKhLQdLwmEAObrHSik9P+QGeI0SoVcK+OqSKvj2CLdeWwkt8Wd595eIGfnWv2i467e8FIvCARCAPnIvN1bALlvSzyDnXzIr6tHfmuvGJNcn+dTls/k666fM4EQgGLsUAIIOUoAIUcJIOQoAYQcJYCQowQQcpQAQo4SQMhRAgg5bgXge09BhTuYyFX1jCsBMNDgLhyF31BMf9fNfHcCSCQeByC/rabwl6iWzJtcuNLNW1xlBLVWVfVUNjUtEHl5G0C0jIBRqWaIkVmADIWpEbI7CVm2DAHkwSgGkLYSU4dtEpCyB0tRPSXbhAg6HJJlSJBNUT3raZYiGiHD/5d0YVFUz60EeAQs2KRY5N28yYUrm5d+2VVlaSCK1/nY0tVM/LzTOAnMpuk7fpvNjtVa8wwBf+kw3Ckqd0ilFpmNN54CkL54gbFVr2m+P5sNbpj9BUtQS4Ypa/Qlzdtl4vEStQoIOUoAIUcJIOQoAYQcJYCQowQQcoIigMwpsuyQM55KpnsFbtJwneeSZFpw1nkciMKAYAhAFwcAmA6jH2L65N/JmBGgvU5jTPi1fEC0z3mI5eyIq36HoW5c6TA01v1tCORAIARAFW+dYqAuzRATYx1RvdwGx4zJ2wB+O83IRaHRetl4NMt+GEC6apQmbXfzczI2aPEuE8A6AJwyRtg8XJ8/1gRCAAAgZuzYSKAHAGrH0Kn8EDGW08wd0rVhRPUWJfQ7mbAF4C4w+gG8ToK/RNMapEtxaFlLh8b4IoDXMbQD2sVEP9IMcRdtlO/gqC9p3g6mFQQc/vgztYP5AVHd/LisDa/5f+SUvAfyJmpcAAAAAElFTkSuQmCC;" vertex="1" parent="t24WGjuX6B1RanKLqHfm-138">
          <mxGeometry x="41.25" width="57.5" height="57.5" as="geometry" />
        </mxCell>
        <mxCell id="t24WGjuX6B1RanKLqHfm-141" value="" style="group" vertex="1" connectable="0" parent="1">
          <mxGeometry x="620" y="-1160" width="140" height="87.5" as="geometry" />
        </mxCell>
        <mxCell id="t24WGjuX6B1RanKLqHfm-142" value="&lt;font style=&quot;font-size: 17px;&quot;&gt;&lt;b&gt;Sensor Node&lt;/b&gt;&lt;/font&gt;" style="text;html=1;align=center;verticalAlign=middle;whiteSpace=wrap;rounded=0;" vertex="1" parent="t24WGjuX6B1RanKLqHfm-141">
          <mxGeometry y="57.5" width="140" height="30" as="geometry" />
        </mxCell>
        <mxCell id="t24WGjuX6B1RanKLqHfm-143" value="" style="shape=image;verticalLabelPosition=bottom;labelBackgroundColor=default;verticalAlign=top;aspect=fixed;imageAspect=0;image=data:image/png,iVBORw0KGgoAAAANSUhEUgAAAIAAAACACAYAAADDPmHLAAAABHNCSVQICAgIfAhkiAAAAAlwSFlzAAADsQAAA7EB9YPtSQAAABl0RVh0U29mdHdhcmUAd3d3Lmlua3NjYXBlLm9yZ5vuPBoAAA4sSURBVHic7Z1/cFzVdce/5763q13JsmUHIUEkXLBs2TH+AYlNGoSRLRsYm9SMqezWZdpMUmibNCbTSSl4cLBJLRKm04npNCnFpekfpsECCgWGQGT5R0Qmdox/YCm2ZNklsgAb+ZesX6t9P07/EDKxdt/ufYve0xPvfv7S7L17zlm97759991zziMEBGYQjtc8wIy/B3AdgKMEfpgqG99wZaeleoKtizoCrQWQD9BO0swHqWJXuys7O2dXWMBTYKoG0MfAc7oh1tOd7/a5sWM2zllOzD9gwkwAHQR6Uiw+8gwR2I0dr6CxDmAYq7VmEwHfG/EyE/MamtlYL2ODuVbjtvN7AHxlxFA36TSXpjV0SNnZMWuqRdphAJNGDDVpZ2dV0+p6S8aOufPGNWD8LDVObIrUNG+UseE1YqwDAABuv6OcgPVphoiJnmKu1aQMtZ2/D6kHHwAm2RbXycZjkf4EUg8+AFRZnzu6VsYG76zWwdiSbowI63nHvM/LxuMlgRAATPtmALrDaCmOX5gqY8YGFjqNEePL8gHxLY5DRM5jVwRzdiqAEofRiEXmF+Xj8Y5gCADIyzhKHJO0E83Zh6wdZjk7WeeR7GfylKAIQDFGKAGEHCWAkKMEEHKUAEKOEkDIcX0nsLKpqVCLxR6zgaUCKByNIFZGDhRsjj3vtGbGvf3f6Wy1rklms/NE7GfFX40cTBvTWbvQrO57NOVOoNHSVT7ytV3X/qNeonWn/d+80LvQ3nChNuudwIrIGXq19J+c7m3g787dZ73RP8/OZkcGFmyKaKRZ062VR++960M373UMMB2VTU2FIhbbz8AMAkbtZnaCM4dhsCiT8TWIiOOYCaEzcMPI1zlppszlDM7YZsFJM+uZkzmzRti0NU6acnc4sxOxE9YCO6q9N+vFn/+BGxG4+gnQYrHHAMxwHZ7CH5JW1LTEy27e4koADNS4i0jhNzxozXEz3+1FYL7L+QqfIWZXPytqFRBylABCjhJAyFECCDlKACFHCSDkKAGEHCWAkKMEEHKUAEJOIATQnzGZF+iDXALtQAY7/S6SgvttZzt9nDnWyzayzOuz3SQpe0cgBHDQmooejqcda7NLcdpOV6ORSpNR6Ti225wpHc+eAecNzz19cnY+MIvQnkyf4nDJjuFg4jrpeLwkEALo4Ti+P3gPrBHh9HEeNiRqpe00WTPworEg5fUTdgl+klwqbedfzi9Du3F1yuvbLy3ErwYqpO2s71qVcjaxWGDT2XvQYweiLMBdRtCs/ftb4WE+wI1aJ74W3YNSuoiT9tV4enAJ3ucpru38UeQAluuHkE9J/NqqwLPJ25Hg9MkixsH0uRNxMvCNot34w/wT6LOjeK13Pv635ybXsZRFLuCvixoxLdqFD4wi/LS7CkcGy1zbkYXytOTxP18u/fsSKAGMBU4CGK+4FUAgfgIUY4cSQMi5nI3J7XeUD1XpOq+BHkm8U5jIkHiZiQFEcci8DpdUUlFGJmkDmJ/XgThlTYJOi4gIcXTHHOcrZ0JS0/gA3d58CgCIGWQfr9lEjEfgMkvYLcNX+68b871044ogXQPcPeEwHit+GYUi4bUrk8F1+uKWjcRtNX/FjH/z2uMwFgTW9n8LzZZ3V8JuCIoA5sY68N/XPg2NRqVUQA7mBwQzHvLPI6DBxteie/x0OS74elGTvwcfAIj+QQDw/atYQhf9dhl4SrRLY+G2TAA45rfXk7ZjFVhoOWkU++6TgKM6Eb7LjDfhU8ewAUSxNVktPZ97Exh4+yiMznOAKdWcyxVG26lRtwkhICZNQP6t86EVyZVP/vhCDe4qOIICMTj68aSHmWk9AQAfW1LLRE8BKPXSY5tdig2JWukLQO5N4NJze8ADuS2JZDDe+8Az29A0FK64TVoEc/JOYXPxS5iRd9q7mIb4EMTr9MUtL1z+1jPXajjWVQ5Nd7w5tKLvuw0mi+tz8ZiEhjOSu3rD9L95EMlj7+fiThpPBQBAv6oIE5bf5uo9pXo3IsjtbEdRYewoedJ5y1LTbHRNPzXc6/Dyup+o3gLwXibjs/b/wMgpqhwxO8/56c4TrO5e1+85bbr7ovw+pGlMS4+czDzr0OW/An0rmC2fl0UewHYgOsI6EmgBKLxHCSDkKAGEHCWAkKMEEHKUAEKOEkDI0YGP7wK2nb/PBhYAzik/r5rPlzhl12YjgSjeNmagyfpM5ZSOOlX5bVgUb0OeyO2eGwnoqxtnP+08QxiAvU87+4VttLreIm6pnsC69ibSP2lj1HnRWIDvJf5Yam73v7/l6T4A4P2tYGgaiv5sudTUzVe/iHsL93sbzye8rRniTmHrog4+HXwAuDfyG3xVP+CXu3HDPYUH/Dz4AHCrqdubxcdP1/KVu6OHsk8KGXdPOOy7TyKsFRiD3n8x+LqnNC6IC29/6hwoEADt9NvrXmua3y4Dz96BlDbG3sNoFKSZDwLo9svnCbsEzyZv98vduOGZC9VpC1I95KIGfEenil3tfGLpXNviOgIWguHYavS0XVRuQOS0Dkwigj1mJX6SXOpYqBlmBjiCNZ3fxN9ObsCi/DZERWoXcxmIwGXa+f9zGmeGRYR9msXraVlLR6CLQ8O2DBwNVHGowhVKACFHCSDkKAGEHCWAkKMEEHKUAEKOEkDIUQIIOUMZQb9dMtXWxBMELADYURSn7SfKjRw1Y0DDL81K/GvyDvRxMNqkBo0CMYhvT/kFFsXbEBE51gYSImWNN57IMMUGeJ9m4RFa1tKhc3t1BVu0n8BZC9JKxadr7HBDtAtV+nGs7v+22g8YQZyS2P75H2Na9KNPa4qQ5gmpI6ZUWBpW8M7ZXxJsaU8ByL0a0SXTxBl8PbrbL3fjhvsn7x6Ng++GSRbTjwSAaj+9AsAtWqYzVDi5JZ6loNcbFgsA/X57HVCn/xQGMrSo95A+wYxtfnt9zXDfdPmzzqs9/vdOZKJtQgxq6wE0+eW03liI10wlgJG80nsT6i+ltrr3kCY9SY/qNO+tPubaarSdW2tDLAScH3XxqnnzmgRHcrpgHOAImqyZ+JU5PfeQP+Ns6FqFN3rnYlHBMcQp58IQe/WEvVudJyAJ0F5td/NztBG2yghSGUGKMKMEEHKUAEKOEkDIUQIIOUoAIUcJIOQEWgCkBTo8KUj40oQ9Zz55aBTXamjtvg7C+ebQir6zEdM5XyQjBjTpR8BeDq7sc543i/YabdIE1++5Vr8IDbm1ySVNUFvDHOd8gAgxzlR2DDeLHmoX31qzhoEtADx9kkO7VYJHB2txxCqXmh+2dvFzYx2oK34JFdEz3sU0xBkA6/QlzduJjy+5g236OXx8YMSqvgfRYV8lNX/4gRFm5znwuHlgBEErKkT81pukzwBlkQt4pWyLnw+MAEAryG6teRfAHB+9umoU5TVBeWpY3dUvYFXhO776JOCwAOD8zHWPuF74mvo0Lrg+ctZ3nwzMFAA6/XZ82i7y22XgOW1OHAu3pwQR/dBPjxYE/stY5KfLccGzF2+DleMKK2eYnxSY3vAMgzYB3rfu6uE4Hk78SWCeGhokjgyW46GPVuOSHfPDnUGEjdqSlq2fPDTqeHUZLLoZIMdkgkcSa7YkELkmF4/9yMMhayp62JcPKE1QLgKHmSgSmB/rQD7lthoQEWH+85Rtzr0fyR7UWH+Hag6/D7hc+vmdEeQHQRPAp0VlBClcoQQQcvTsU/xjrtaBv4j+EqXUjZN2MZ5OLkWnPdm1nZWRA1geOYg4DOyzbsDW5GLXtYhxMnD/5F24JXYS/ZyH13rm4ZVe9+ns5fp5/M2URtwQ7cIHRhH+82IVjgzK3Qr3g8BcA9wdOYS62PNXbIL0cR6+MXC/9N4BAHw/Vo9VkSu7bp+wS/Cn/d9KW5Wc7hqgQAymLdSsv7QAG7pWSccyN9aBn17zH8j/vT7AFgs89NFqvN47T9qOG8blNcBE9OPRvP9J2QEroEE8HntB2k6V1pZy8IGhgtRvRn8hbWfdlIa0hZq1E3+Dr8Tbpe3UFb90xcEHAI1sPFb8MiaKhLQdLwmEAObrHSik9P+QGeI0SoVcK+OqSKvj2CLdeWwkt8Wd595eIGfnWv2i467e8FIvCARCAPnIvN1bALlvSzyDnXzIr6tHfmuvGJNcn+dTls/k666fM4EQgGLsUAIIOUoAIUcJIOQoAYQcJYCQowQQcpQAQo4SQMhRAgg5bgXge09BhTuYyFX1jCsBMNDgLhyF31BMf9fNfHcCSCQeByC/rabwl6iWzJtcuNLNW1xlBLVWVfVUNjUtEHl5G0C0jIBRqWaIkVmADIWpEbI7CVm2DAHkwSgGkLYSU4dtEpCyB0tRPSXbhAg6HJJlSJBNUT3raZYiGiHD/5d0YVFUz60EeAQs2KRY5N28yYUrm5d+2VVlaSCK1/nY0tVM/LzTOAnMpuk7fpvNjtVa8wwBf+kw3Ckqd0ilFpmNN54CkL54gbFVr2m+P5sNbpj9BUtQS4Ypa/Qlzdtl4vEStQoIOUoAIUcJIOQoAYQcJYCQowQQcoIigMwpsuyQM55KpnsFbtJwneeSZFpw1nkciMKAYAhAFwcAmA6jH2L65N/JmBGgvU5jTPi1fEC0z3mI5eyIq36HoW5c6TA01v1tCORAIARAFW+dYqAuzRATYx1RvdwGx4zJ2wB+O83IRaHRetl4NMt+GEC6apQmbXfzczI2aPEuE8A6AJwyRtg8XJ8/1gRCAAAgZuzYSKAHAGrH0Kn8EDGW08wd0rVhRPUWJfQ7mbAF4C4w+gG8ToK/RNMapEtxaFlLh8b4IoDXMbQD2sVEP9IMcRdtlO/gqC9p3g6mFQQc/vgztYP5AVHd/LisDa/5f+SUvAfyJmpcAAAAAElFTkSuQmCC;" vertex="1" parent="t24WGjuX6B1RanKLqHfm-141">
          <mxGeometry x="41.25" width="57.5" height="57.5" as="geometry" />
        </mxCell>
        <mxCell id="t24WGjuX6B1RanKLqHfm-144" value="" style="endArrow=classic;html=1;rounded=0;exitX=0.5;exitY=1;exitDx=0;exitDy=0;entryX=0.75;entryY=0;entryDx=0;entryDy=0;startArrow=classic;startFill=1;" edge="1" parent="1" source="t24WGjuX6B1RanKLqHfm-142" target="t24WGjuX6B1RanKLqHfm-2">
          <mxGeometry width="50" height="50" relative="1" as="geometry">
            <mxPoint x="530" y="-1062" as="sourcePoint" />
            <mxPoint x="530" y="-950" as="targetPoint" />
            <Array as="points">
              <mxPoint x="690" y="-1040" />
              <mxPoint x="560" y="-1040" />
            </Array>
          </mxGeometry>
        </mxCell>
        <mxCell id="t24WGjuX6B1RanKLqHfm-145" value="" style="endArrow=classic;html=1;rounded=0;exitX=0.5;exitY=1;exitDx=0;exitDy=0;entryX=0.25;entryY=0;entryDx=0;entryDy=0;startArrow=classic;startFill=1;" edge="1" parent="1" source="t24WGjuX6B1RanKLqHfm-135" target="t24WGjuX6B1RanKLqHfm-2">
          <mxGeometry width="50" height="50" relative="1" as="geometry">
            <mxPoint x="540" y="-1052" as="sourcePoint" />
            <mxPoint x="540" y="-940" as="targetPoint" />
            <Array as="points">
              <mxPoint x="350" y="-1040" />
              <mxPoint x="480" y="-1040" />
            </Array>
          </mxGeometry>
        </mxCell>
        <mxCell id="t24WGjuX6B1RanKLqHfm-147" value="" style="endArrow=classic;html=1;rounded=0;exitX=0.75;exitY=0;exitDx=0;exitDy=0;entryX=1;entryY=0.5;entryDx=0;entryDy=0;" edge="1" parent="1" source="t24WGjuX6B1RanKLqHfm-7" target="t24WGjuX6B1RanKLqHfm-7">
          <mxGeometry width="50" height="50" relative="1" as="geometry">
            <mxPoint x="1160" y="-550" as="sourcePoint" />
            <mxPoint x="1240" y="-481" as="targetPoint" />
            <Array as="points">
              <mxPoint x="1160" y="-560" />
              <mxPoint x="1240" y="-560" />
              <mxPoint x="1240" y="-481" />
            </Array>
          </mxGeometry>
        </mxCell>
        <mxCell id="t24WGjuX6B1RanKLqHfm-148" value="Wait" style="edgeLabel;html=1;align=center;verticalAlign=middle;resizable=0;points=[];" vertex="1" connectable="0" parent="t24WGjuX6B1RanKLqHfm-147">
          <mxGeometry x="-0.367" y="4" relative="1" as="geometry">
            <mxPoint x="4" y="4" as="offset" />
          </mxGeometry>
        </mxCell>
        <mxCell id="t24WGjuX6B1RanKLqHfm-149" value="" style="endArrow=classic;html=1;rounded=0;exitX=0.75;exitY=0;exitDx=0;exitDy=0;entryX=1;entryY=0.5;entryDx=0;entryDy=0;" edge="1" parent="1">
          <mxGeometry width="50" height="50" relative="1" as="geometry">
            <mxPoint x="1160" y="-360.5" as="sourcePoint" />
            <mxPoint x="1200" y="-320.5" as="targetPoint" />
            <Array as="points">
              <mxPoint x="1160" y="-399.5" />
              <mxPoint x="1240" y="-399.5" />
              <mxPoint x="1240" y="-320.5" />
            </Array>
          </mxGeometry>
        </mxCell>
        <mxCell id="t24WGjuX6B1RanKLqHfm-150" value="Wait" style="edgeLabel;html=1;align=center;verticalAlign=middle;resizable=0;points=[];" vertex="1" connectable="0" parent="t24WGjuX6B1RanKLqHfm-149">
          <mxGeometry x="-0.367" y="4" relative="1" as="geometry">
            <mxPoint x="4" y="4" as="offset" />
          </mxGeometry>
        </mxCell>
      </root>
    </mxGraphModel>
  </diagram>
</mxfile>
